# Exported from Wings 3D 1.4.1
mtllib kitchen_unit_1.mtl
o kitchen_unit_1
#66 vertices, 128 faces
v 3.02540004 4.4408921e-16 -3.00945384
v -1.99645776 4.4408921e-16 -3.00945384
v 3.02540004 4.4408921e-16 2.98682278
v -1.99645776 4.4408921e-16 2.98682278
v 3.02540004 0.54586310 -3.00945384
v 3.02540004 5.11462515 -3.00945384
v -1.99645776 5.11462515 -3.00945384
v -1.99645776 0.54586310 -3.00945384
v 3.02540004 0.54586310 2.98682278
v 3.02540004 5.11462515 2.98682278
v -1.99645776 5.11462515 2.98682278
v -1.99645776 0.54586310 2.98682278
v 2.95957755 6.21419309 -2.34415786
v 2.95957755 6.21419309 2.32152679
v 2.95957755 5.71993226 2.32152679
v 2.95957755 5.71993226 -2.34415786
v 2.95957755 1.15117022 -2.34415786
v 2.95957755 4.50931804 -2.34415786
v 2.95957755 4.50931804 2.32152679
v 2.95957755 1.15117022 2.32152679
v 2.99009663 6.18103805 -2.30771699
v 2.99009663 6.18103805 2.28508592
v 2.99009663 5.75308730 2.28508592
v 2.99009663 5.75308730 -2.30771699
v 2.99009663 1.18432526 -2.30771699
v 2.99009663 4.47616300 -2.30771699
v 2.99009663 4.47616300 2.28508592
v 2.99009663 1.18432526 2.28508592
v 3.02540004 6.07625679 -2.19255140
v 3.02540004 6.07625679 2.16992034
v 3.02540004 5.85786856 2.16992034
v 3.02540004 5.85786856 -2.19255140
v 3.02540004 1.28910652 -2.19255140
v 3.02540004 4.37138174 -2.19255140
v 3.02540004 4.37138174 2.16992034
v 3.02540004 1.28910652 2.16992034
v 3.02540004 0.81817432 -2.71015526
v 2.96337103 0.86290970 -2.66098639
v 3.02540004 4.84231394 -2.71015526
v 2.96337103 4.79757855 -2.66098639
v 3.02540004 4.84231394 2.68752420
v 2.96337103 4.79757855 2.63835532
v 3.02540004 0.81817432 2.68752420
v 2.96337103 0.86290970 2.63835532
v 3.02540004 6.54718899 -2.71015526
v 2.96337103 6.50245360 -2.66098639
v 3.02540004 6.54718899 2.68752420
v 2.96337103 6.50245360 2.63835532
v 3.02540004 5.38693637 2.68752420
v 2.96337103 5.43167175 2.63835532
v 3.02540004 5.38693637 -2.71015526
v 2.96337103 5.43167175 -2.66098639
v -1.99645776 6.81812941 2.98682278
v -1.99645776 7.12227222 2.98682278
v 3.02540004 6.81812941 2.98682278
v -1.99645776 6.81812941 -3.00945384
v -1.99645776 7.12227222 -3.00945384
v 3.02540004 6.81812941 -3.00945384
v 3.02540004 6.91374706 2.98682278
v 2.99067925 7.00481036 2.98682278
v 2.83345348 7.12227222 2.98682278
v 2.91727687 7.08455257 2.98682278
v 3.02540004 6.91374706 -3.00945384
v 2.99067925 7.00481036 -3.00945384
v 2.91727687 7.08455257 -3.00945384
v 2.83345348 7.12227222 -3.00945384
vt 0.0000000e+0 0.31230879
vt 6.3317407e-17 0.0000000e+0
vt 6.3317407e-17 3.3331444e-2
vt 6.3317407e-17 0.41632801
vt 1.5703270e-2 0.40005513
vt 1.5703270e-2 0.32920789
vt 1.6627843e-2 0.32893663
vt 1.6627843e-2 0.39978387
vt 1.6627843e-2 0.29568094
vt 1.6627843e-2 4.9959288e-2
vt 1.6929919e-2 0.39824363
vt 1.6955840e-2 0.33072576
vt 1.7107302e-2 0.29579789
vt 1.7107302e-2 5.0076234e-2
vt 1.8434898e-2 0.39732350
vt 1.8434898e-2 0.33193951
vt 1.8574732e-2 5.3629127e-2
vt 1.8779634e-2 0.29602947
vt 1.9838930e-2 0.29306626
vt 1.9838930e-2 5.2807862e-2
vt 3.4713119e-2 0.38052588
vt 3.4725436e-2 0.34844351
vt 3.6341970e-2 7.1377763e-2
vt 3.6516865e-2 0.27828084
vt 3.6841909e-2 0.37776335
vt 3.6852105e-2 0.35120604
vt 3.8754742e-2 7.3885844e-2
vt 3.8925397e-2 0.27577276
vt 4.3295380e-2 0.37106203
vt 4.3300430e-2 0.35790736
vt 4.5364065e-2 8.0536539e-2
vt 4.5523477e-2 0.26912206
vt 0.28609776 0.37106203
vt 0.28610281 0.35790736
vt 0.28834999 8.0536539e-2
vt 0.28850941 0.26912206
vt 0.29254609 0.37776335
vt 0.29255629 0.35120604
vt 0.29467276 0.38052588
vt 0.29468508 0.34844351
vt 0.29494807 7.3885844e-2
vt 0.29511873 0.27577276
vt 0.29735661 7.1377763e-2
vt 0.29753150 0.27828084
vt 0.31244235 0.39824363
vt 0.31246828 0.33072576
vt 0.31284533 0.39732350
vt 0.31284533 0.33193951
vt 0.31424936 0.29306626
vt 0.31424936 5.2807862e-2
vt 0.31509384 5.3629127e-2
vt 0.31529874 0.29602947
vt 0.31557696 0.40005513
vt 0.31557696 0.32920789
vt 0.31650153 4.9959288e-2
vt 0.31650153 0.29568094
vt 0.31650153 0.32893663
vt 0.31650153 0.39978387
vt 0.31698099 0.29579789
vt 0.31698099 5.0076234e-2
vt 0.32172232 0.76791616
vt 0.32172232 0.43478679
vt 0.32756091 0.76791616
vt 0.32756091 0.43478679
vt 0.33312937 4.6837534e-17
vt 0.33312937 3.3331444e-2
vt 0.33312937 0.31230879
vt 0.33312937 0.41632801
vt 0.33357956 0.76791616
vt 0.33357956 0.43478679
vt 0.33505058 0.42216661
vt 0.33505058 0.42216661
vt 0.33505058 0.41632801
vt 0.33505058 0.31230879
vt 0.33505058 0.41632801
vt 0.33505058 0.31230879
vt 0.33505058 0.0000000e+0
vt 0.33505058 3.3331444e-2
vt 0.33505058 3.3331444e-2
vt 0.33505058 0.0000000e+0
vt 0.33735381 0.42772711
vt 0.33735381 0.42772711
vt 0.34046566 0.76791616
vt 0.34046566 0.43478679
vt 0.34222302 0.43259632
vt 0.34222302 0.43259632
vt 0.34648430 0.76791616
vt 0.34648430 0.43478679
vt 0.34778352 0.43489955
vt 0.34778352 0.43489955
vt 0.66687063 0.31230879
vt 0.66687063 0.41632801
vt 0.66687063 0.0000000e+0
vt 0.66687063 0.43489955
vt 0.66687063 3.3331444e-2
vt 0.66687063 0.76860095
vt 0.66687063 0.43547158
vt 0.66688073 0.76791616
vt 0.66688073 0.43478679
vt 0.66817995 0.31230879
vt 0.66817995 0.41632801
vt 0.66817995 0.43489955
vt 0.66817995 4.3888504e-16
vt 0.66817995 3.3331444e-2
vt 0.66817995 3.7816972e-16
vt 0.66817995 3.3331444e-2
vt 0.66817995 0.31230879
vt 0.66817995 0.41632801
vt 0.66817995 0.43489955
vt 1.00000000 0.41632801
vt 1.00000000 6.2450045e-17
vt 1.00000000 3.3331444e-2
vt 1.00000000 0.43489955
vt 1.00000000 0.76860095
vt 1.00000000 0.31230879
vt 1.00000000 0.43547158
vn 0.96749452 0.18345646 0.17406342
vn 0.96749452 -0.18345646 0.17406342
vn 0.96749452 0.18345646 -0.17406342
vn 0.96749452 0.18345646 0.17406342
vn 0.92808667 0.27153257 -0.25480425
vn 0.92808667 0.27153257 0.25480425
vn 0.92808667 -0.27153257 0.25480425
vn 0.92808667 -0.27153257 -0.25480425
vn 0.92808667 -0.27153257 -0.25480425
vn 0.92808667 0.27153257 -0.25480425
vn 0.92808667 0.27153257 0.25480425
vn 0.92808667 -0.27153257 0.25480425
vn 0.98904364 0.10875307 -9.9827096e-2
vn 0.98904364 0.10875307 9.9827096e-2
vn 0.98904364 -0.10875307 9.9827096e-2
vn 0.98904364 -0.10875307 -9.9827096e-2
vn 0.98904364 -0.10875307 -9.9827096e-2
vn 0.98904364 0.10875307 -9.9827096e-2
vn 0.98904364 0.10875307 9.9827096e-2
vn 0.98904364 -0.10875307 9.9827096e-2
vn 0.96588087 0.18625155 0.17995693
vn 0.94333738 -0.23864084 0.23057566
vn 0.94333738 -0.23864084 -0.23057566
vn 0.92304580 0.27665169 -0.26730188
vn 0.94333738 -0.23864084 0.23057566
vn 0.94333738 -0.23864084 -0.23057566
vn 0.94333738 0.23864084 -0.23057566
vn 0.94333738 0.23864084 0.23057566
vn 1.00000000 0.0000000e+0 1.4812166e-16
vn 1.6200263e-16 0.0000000e+0 -1.00000000
vn 0.0000000e+0 -1.00000000 0.0000000e+0
vn 1.00000000 0.0000000e+0 1.4812166e-16
vn 1.6200263e-16 0.0000000e+0 -1.00000000
vn 0.0000000e+0 -1.00000000 0.0000000e+0
vn -1.00000000 0.0000000e+0 0.0000000e+0
vn 1.6200263e-16 0.0000000e+0 -1.00000000
vn -1.00000000 0.0000000e+0 0.0000000e+0
vn 0.0000000e+0 -1.00000000 0.0000000e+0
vn 0.0000000e+0 -1.00000000 0.0000000e+0
vn -4.0500658e-16 0.0000000e+0 1.00000000
vn 1.00000000 0.0000000e+0 1.4812166e-16
vn -4.0500658e-16 0.0000000e+0 1.00000000
vn 0.0000000e+0 -1.00000000 0.0000000e+0
vn 0.0000000e+0 -1.00000000 0.0000000e+0
vn -3.2400526e-16 0.0000000e+0 1.00000000
vn -1.00000000 0.0000000e+0 0.0000000e+0
vn 1.5842383e-16 0.0000000e+0 -1.00000000
vn 1.5842383e-16 0.0000000e+0 -1.00000000
vn 1.00000000 1.0878851e-15 1.5578273e-15
vn 1.5842383e-16 0.0000000e+0 -1.00000000
vn 1.00000000 1.0878851e-15 1.5578273e-15
vn 1.00000000 1.0878851e-15 1.5578273e-15
vn 1.5842383e-16 0.0000000e+0 -1.00000000
vn 1.00000000 1.0878851e-15 1.5578273e-15
vn 1.8124528e-16 4.6106569e-32 -1.00000000
vn 1.00000000 1.0887605e-16 1.4392347e-15
vn 1.00000000 1.0887605e-16 1.4392347e-15
vn 1.00000000 1.0887605e-16 1.4392347e-15
vn 1.00000000 1.0887605e-16 1.4392347e-15
vn 1.8124528e-16 4.6106569e-32 -1.00000000
vn 1.2933389e-16 1.3034579e-16 -1.00000000
vn 1.2933389e-16 1.3034579e-16 -1.00000000
vn -1.00000000 -1.1572953e-16 0.0000000e+0
vn -1.00000000 -1.1572953e-16 0.0000000e+0
vn 1.2933389e-16 1.3034579e-16 -1.00000000
vn -1.00000000 -1.1572953e-16 0.0000000e+0
vn 1.2933389e-16 1.3034579e-16 -1.00000000
vn 1.5842383e-16 0.0000000e+0 -1.00000000
vn 1.5842383e-16 0.0000000e+0 -1.00000000
vn -1.00000000 0.0000000e+0 0.0000000e+0
vn -1.00000000 0.0000000e+0 0.0000000e+0
vn 1.00000000 3.2646937e-16 8.8872993e-17
vn -4.7169268e-16 0.0000000e+0 1.00000000
vn 1.00000000 3.2646937e-16 8.8872993e-17
vn -4.7169268e-16 0.0000000e+0 1.00000000
vn 1.00000000 3.2646937e-16 8.8872993e-17
vn -4.7169268e-16 0.0000000e+0 1.00000000
vn 1.00000000 3.2646937e-16 8.8872993e-17
vn 1.00000000 3.2646937e-16 8.8872993e-17
vn -4.1410556e-16 3.2869204e-32 1.00000000
vn 1.00000000 -1.1061825e-17 3.7030414e-17
vn 1.00000000 -1.1061825e-17 3.7030414e-17
vn 1.00000000 -1.1061825e-17 3.7030414e-17
vn 1.00000000 -1.1061825e-17 3.7030414e-17
vn 1.00000000 -1.1061825e-17 3.7030414e-17
vn -4.1410556e-16 3.2869204e-32 1.00000000
vn 1.00000000 -1.1061825e-17 3.7030414e-17
vn 1.00000000 -1.1061825e-17 3.7030414e-17
vn 1.00000000 -1.1061825e-17 3.7030414e-17
vn -4.1410556e-16 3.2869204e-32 1.00000000
vn -1.00000000 2.0533480e-19 0.0000000e+0
vn -1.00000000 2.0533480e-19 0.0000000e+0
vn -5.1733558e-16 -1.7379438e-16 1.00000000
vn -5.1733558e-16 -1.7379438e-16 1.00000000
vn -1.00000000 2.0533480e-19 0.0000000e+0
vn -5.1733558e-16 -1.7379438e-16 1.00000000
vn -3.7323440e-16 0.0000000e+0 1.00000000
vn -1.00000000 0.0000000e+0 0.0000000e+0
vn -1.00000000 0.0000000e+0 0.0000000e+0
vn -3.7323440e-16 0.0000000e+0 1.00000000
vn -1.00000000 0.0000000e+0 0.0000000e+0
vn -3.7323440e-16 0.0000000e+0 1.00000000
vn -1.00000000 0.0000000e+0 0.0000000e+0
vn 0.96749452 0.18345646 -0.17406342
vn 0.96749452 0.18345646 -0.17406342
vn 0.96749452 0.18345646 -0.17406342
vn 0.96749452 0.18345646 -0.17406342
vn 0.96749452 -0.18345646 -0.17406342
vn 0.96749452 -0.18345646 -0.17406342
vn 0.96749452 -0.18345646 -0.17406342
vn 0.96749452 -0.18345646 -0.17406342
vn 0.96749452 -0.18345646 -0.17406342
vn 0.96749452 -0.18345646 -0.17406342
vn 0.96749452 -0.18345646 -0.17406342
vn 0.96749452 -0.18345646 -0.17406342
vn 0.96749452 -0.18345646 -0.17406342
vn 0.96749452 -0.18345646 -0.17406342
vn 0.96749452 -0.18345646 -0.17406342
vn 0.96749452 -0.18345646 -0.17406342
vn 0.96749452 -0.18345646 0.17406342
vn 0.96749452 -0.18345646 0.17406342
vn 0.96749452 -0.18345646 0.17406342
vn 0.96749452 -0.18345646 0.17406342
vn 0.96749452 -0.18345646 0.17406342
vn 0.96749452 -0.18345646 0.17406342
vn 0.96749452 -0.18345646 0.17406342
vn 0.96749452 -0.18345646 0.17406342
vn 0.99996043 6.5796449e-3 5.9864561e-3
vn 0.99996043 6.5796449e-3 5.9864561e-3
vn 0.73042442 0.49117804 0.47457802
vn 0.73042442 0.49117804 0.47457802
vn 0.73042442 0.49117804 0.47457802
vn 0.73042442 0.49117804 0.47457802
vn 0.99996043 6.5796449e-3 5.9864561e-3
vn 0.99996043 6.5796449e-3 5.9864561e-3
vn 0.99996043 -6.5796449e-3 5.9864561e-3
vn 0.73042442 -0.49117804 0.47457802
vn 0.73042442 -0.49117804 0.47457802
vn 0.99996043 -6.5796449e-3 5.9864561e-3
vn 0.99996043 -6.5796449e-3 -5.9864561e-3
vn 0.99996043 -6.5796449e-3 -5.9864561e-3
vn 0.73042442 -0.49117804 -0.47457802
vn 0.73042442 -0.49117804 -0.47457802
vn 0.73042442 -0.49117804 -0.47457802
vn 0.99996043 -6.5796449e-3 -5.9864561e-3
vn 0.99996043 -6.5796449e-3 -5.9864561e-3
vn 0.73042442 -0.49117804 -0.47457802
vn 0.99996043 6.5796449e-3 -5.9864561e-3
vn 0.99996043 6.5796449e-3 -5.9864561e-3
vn 0.73042442 0.49117804 -0.47457802
vn 0.73042442 0.49117804 -0.47457802
vn 0.99996043 -6.5796449e-3 5.9864561e-3
vn 0.99996043 -6.5796449e-3 5.9864561e-3
vn 0.73042442 -0.49117804 0.47457802
vn 0.73042442 -0.49117804 0.47457802
vn 0.73042442 -0.49117804 0.47457802
vn 0.73042442 -0.49117804 0.47457802
vn 0.99996043 -6.5796449e-3 5.9864561e-3
vn 0.99996043 -6.5796449e-3 5.9864561e-3
vn 0.99996043 -6.5796449e-3 -5.9864561e-3
vn 0.73042442 -0.49117804 -0.47457802
vn 0.99996043 -6.5796449e-3 -5.9864561e-3
vn 0.73042442 -0.49117804 -0.47457802
vn 0.99996043 6.5796449e-3 -5.9864561e-3
vn 0.99996043 6.5796449e-3 -5.9864561e-3
vn 0.73042442 0.49117804 -0.47457802
vn 0.73042442 0.49117804 -0.47457802
vn 0.73042442 0.49117804 -0.47457802
vn 0.99996043 6.5796449e-3 -5.9864561e-3
vn 0.99996043 6.5796449e-3 -5.9864561e-3
vn 0.73042442 0.49117804 -0.47457802
vn 0.99996043 6.5796449e-3 5.9864561e-3
vn 0.99996043 6.5796449e-3 5.9864561e-3
vn 0.73042442 0.49117804 0.47457802
vn 0.73042442 0.49117804 0.47457802
vn -1.00000000 3.4780460e-16 0.0000000e+0
vn -3.1146829e-16 4.9303807e-32 1.00000000
vn -1.00000000 -1.9480540e-15 0.0000000e+0
vn -7.2688927e-17 -7.5797169e-16 1.00000000
vn -7.2688927e-17 -7.5797169e-16 1.00000000
vn -3.1146829e-16 4.9303807e-32 1.00000000
vn 0.0000000e+0 1.00000000 0.0000000e+0
vn -1.00000000 -9.7402699e-16 0.0000000e+0
vn 0.0000000e+0 1.00000000 0.0000000e+0
vn -1.00000000 -9.7402699e-16 0.0000000e+0
vn 0.0000000e+0 -1.4601338e-15 1.00000000
vn 1.00000000 0.0000000e+0 0.0000000e+0
vn -7.2688927e-17 -2.7904780e-17 1.00000000
vn -7.2688927e-17 -2.7904780e-17 1.00000000
vn 1.00000000 -4.4247300e-17 0.0000000e+0
vn 0.0000000e+0 5.2138315e-16 1.00000000
vn 1.00000000 -4.4247300e-17 0.0000000e+0
vn -1.00000000 3.0800220e-19 0.0000000e+0
vn 0.0000000e+0 0.0000000e+0 -1.00000000
vn -1.00000000 -9.7402699e-16 0.0000000e+0
vn 0.0000000e+0 5.2138315e-16 -1.00000000
vn -1.00000000 -9.7402699e-16 0.0000000e+0
vn 0.0000000e+0 0.0000000e+0 -1.00000000
vn -1.00000000 3.0800220e-19 0.0000000e+0
vn 0.0000000e+0 1.00000000 0.0000000e+0
vn 0.0000000e+0 0.0000000e+0 -1.00000000
vn -1.00000000 0.0000000e+0 0.0000000e+0
vn 1.0382276e-16 2.6069158e-16 -1.00000000
vn 1.00000000 1.0957750e-15 6.2329058e-16
vn 1.00000000 1.0957750e-15 6.2329058e-16
vn 1.00000000 0.0000000e+0 0.0000000e+0
vn 1.0382276e-16 2.6069158e-16 -1.00000000
vn 1.00000000 0.0000000e+0 0.0000000e+0
vn 1.00000000 1.0957750e-15 6.2329058e-16
vn 1.00000000 1.0957750e-15 6.2329058e-16
vn 3.0245572e-15 0.0000000e+0 -1.00000000
vn 3.0245572e-15 0.0000000e+0 -1.00000000
vn 0.98345952 0.18112804 0.0000000e+0
vn 0.98345952 0.18112804 0.0000000e+0
vn 0.98345952 0.18112804 0.0000000e+0
vn 0.98345952 0.18112804 0.0000000e+0
vn 0.0000000e+0 0.0000000e+0 1.00000000
vn 0.0000000e+0 0.0000000e+0 1.00000000
vn 0.0000000e+0 0.0000000e+0 1.00000000
vn 0.85035046 0.52621678 0.0000000e+0
vn 0.85035046 0.52621678 0.0000000e+0
vn 0.0000000e+0 0.0000000e+0 1.00000000
vn -2.9075571e-17 -3.0318867e-16 1.00000000
vn 0.20985106 0.97773337 0.0000000e+0
vn 0.20985106 0.97773337 0.0000000e+0
vn -2.9075571e-17 -3.0318867e-16 1.00000000
vn -2.9075571e-17 -3.0318867e-16 1.00000000
vn -2.9075571e-17 -3.0318867e-16 1.00000000
vn -2.9075571e-17 -3.0318867e-16 1.00000000
vn 0.0000000e+0 0.0000000e+0 1.00000000
vn 0.58494215 0.81107502 0.0000000e+0
vn 0.58494215 0.81107502 0.0000000e+0
vn 0.58494215 0.81107502 0.0000000e+0
vn 0.58494215 0.81107502 0.0000000e+0
vn 0.98345952 0.18112804 0.0000000e+0
vn 0.98345952 0.18112804 0.0000000e+0
vn -2.3969145e-15 0.0000000e+0 -1.00000000
vn -2.3969145e-15 0.0000000e+0 -1.00000000
vn 0.85035046 0.52621678 0.0000000e+0
vn 0.85035046 0.52621678 0.0000000e+0
vn 0.85035046 0.52621678 0.0000000e+0
vn 0.85035046 0.52621678 0.0000000e+0
vn -1.2510022e-14 0.0000000e+0 -1.00000000
vn -1.2510022e-14 0.0000000e+0 -1.00000000
vn 0.58494215 0.81107502 0.0000000e+0
vn 0.58494215 0.81107502 0.0000000e+0
vn -1.4177100e-14 0.0000000e+0 -1.00000000
vn 0.20985106 0.97773337 0.0000000e+0
vn -3.7941858e-15 0.0000000e+0 -1.00000000
vn 0.20985106 0.97773337 0.0000000e+0
vn 0.20985106 0.97773337 0.0000000e+0
vn 0.20985106 0.97773337 0.0000000e+0
vn -3.7941858e-15 0.0000000e+0 -1.00000000
vn -3.7941858e-15 0.0000000e+0 -1.00000000
vn -3.7941858e-15 0.0000000e+0 -1.00000000
vn -3.7941858e-15 0.0000000e+0 -1.00000000
g kitchen_unit_1_kitchen_unit_1_uv
usemtl kitchen_unit_1_uv
s 1
f 1/96/31 3/97/43 2/114/38
f 2/114/34 3/97/39 4/116/44
f 13/39/107 16/40/115 46/45/159
f 13/39/105 21/37/5 16/40/114
f 14/21/1 21/37/5 13/39/104
f 14/21/1 23/26/7 22/25/6
f 14/21/1 46/45/153 48/11/160
f 15/22/2 14/21/1 50/12/164
f 15/22/2 16/40/113 23/26/7
f 16/40/111 21/37/5 24/38/8
f 16/40/109 50/12/165 52/46/173
f 17/43/119 20/23/127 38/51/135
f 17/43/117 25/41/9 20/23/125
f 18/44/3 25/41/9 17/43/116
f 18/44/3 27/28/11 26/42/10
f 18/44/3 38/51/129 40/52/136
f 19/24/4 18/44/3 42/18/141
f 19/24/4 20/23/124 27/28/11
f 20/23/123 25/41/9 28/27/12
f 20/23/121 42/18/140 44/17/149
f 22/25/6 21/37/5 14/21/1
f 22/25/6 23/26/7 30/29/14
f 23/26/7 14/21/1 15/22/2
f 23/26/7 32/34/16 31/30/15
f 24/38/8 21/37/5 32/34/16
f 24/38/8 23/26/7 16/40/110
f 26/42/10 25/41/9 18/44/3
f 26/42/10 27/28/11 34/36/18
f 27/28/11 18/44/3 19/24/4
f 27/28/11 36/31/20 35/32/19
f 28/27/12 25/41/9 36/31/20
f 28/27/12 27/28/11 20/23/122
f 29/33/13 21/37/5 30/29/14
f 29/33/13 32/34/16 21/37/5
f 30/29/14 21/37/5 22/25/6
f 30/29/14 32/34/16 29/33/13
f 31/30/15 30/29/14 23/26/7
f 31/30/15 32/34/16 30/29/14
f 32/34/16 23/26/7 24/38/8
f 33/35/17 25/41/9 34/36/18
f 33/35/17 36/31/20 25/41/9
f 34/36/18 25/41/9 26/42/10
f 34/36/18 36/31/20 33/35/17
f 35/32/19 34/36/18 27/28/11
f 35/32/19 36/31/20 34/36/18
f 36/31/20 27/28/11 28/27/12
f 38/51/134 18/44/3 17/43/118
f 40/52/139 42/18/145 18/44/3
f 42/18/146 20/23/126 19/24/4
f 44/17/148 38/51/128 20/23/120
f 46/45/158 14/21/1 13/39/106
f 48/11/162 50/12/170 14/21/1
f 50/12/169 16/40/112 15/22/2
f 52/46/172 46/45/152 16/40/108
f 53/110/178 54/113/185 56/92/197
f 57/94/202 56/92/195 54/113/183
s 2
f 1/65/29 9/3/72 3/2/41
f 2/93/35 12/112/99 8/95/70
f 4/111/46 12/112/101 2/93/37
f 5/66/54 9/3/79 1/65/32
f 5/66/51 37/55/21 9/3/78
f 5/66/49 39/56/22 37/55/21
f 6/67/59 39/56/22 5/66/52
f 6/67/56 51/57/28 10/1/85
f 7/91/66 11/115/95 56/92/199
f 8/95/71 12/112/103 7/91/64
f 9/3/74 37/55/21 43/10/24
f 9/3/76 43/10/24 10/1/88
f 10/1/87 39/56/22 6/67/57
f 10/1/82 43/10/24 41/9/23
f 10/1/89 47/8/26 55/4/192
f 10/1/84 51/57/28 49/7/27
f 11/115/92 7/91/63 12/112/98
f 37/60/21 39/59/22 38/50/132
f 38/50/131 43/14/24 37/60/21
f 39/59/22 42/19/143 40/49/138
f 40/49/137 38/50/130 39/59/22
f 41/9/23 39/56/22 10/1/81
f 41/13/23 43/14/24 42/19/144
f 42/19/147 39/59/22 41/13/23
f 43/14/24 38/50/133 44/20/151
f 44/20/150 42/19/142 43/14/24
f 45/53/25 47/5/26 46/47/156
f 45/58/25 51/57/28 58/68/205
f 46/47/154 51/54/28 45/53/25
f 47/5/26 50/16/171 48/15/163
f 48/15/161 46/47/155 47/5/26
f 49/7/27 47/8/26 10/1/83
f 49/6/27 51/54/28 50/16/167
f 50/16/166 47/5/26 49/6/27
f 51/54/28 46/47/157 52/48/174
f 52/48/175 50/16/168 51/54/28
f 53/101/180 61/89/229 54/102/186
f 55/4/190 47/8/26 58/68/209
f 55/75/189 61/89/228 53/101/179
f 56/92/193 11/115/91 53/110/176
f 56/108/198 66/90/256 58/73/212
f 57/109/201 66/90/249 56/108/194
f 58/68/204 47/8/26 45/58/25
f 58/68/210 51/57/28 6/67/58
f 58/73/211 66/90/255 63/72/238
f 59/71/217 61/89/226 55/75/188
f 60/81/222 61/89/227 59/71/218
f 62/85/230 61/89/223 60/81/219
f 63/72/237 66/90/254 64/82/244
f 64/82/243 66/90/253 65/86/247
s 3
f 1/80/30 2/103/36 5/79/50
f 3/77/40 12/104/97 4/105/45
f 5/79/53 7/107/67 6/76/60
f 6/76/55 7/107/62 58/73/203
f 7/107/61 5/79/48 8/106/69
f 8/106/68 5/79/47 2/103/33
f 9/78/75 12/104/102 3/77/42
f 10/74/90 11/100/96 9/78/77
f 11/100/94 10/74/80 53/101/177
f 12/104/100 9/78/73 11/100/93
f 53/101/181 10/74/86 55/75/191
f 54/99/182 66/87/248 57/98/200
f 58/73/207 7/107/65 56/108/196
f 58/61/208 59/64/215 55/62/187
f 60/70/220 59/64/214 64/69/240
f 60/70/221 64/69/242 62/84/233
f 61/88/224 62/84/234 66/87/251
f 61/88/225 66/87/252 54/99/184
f 63/63/235 59/64/213 58/61/206
f 64/69/241 59/64/216 63/63/236
f 65/83/245 62/84/231 64/69/239
f 65/83/246 66/87/250 62/84/232
