# Exported from Wings 3D 1.4.1
mtllib window_1.mtl
o window_1
#54 vertices, 108 faces
v 0.23955750 0.0000000e+0 -7.02000000
v 0.23955750 0.87750000 -7.02000000
v -0.23955750 0.87750000 -7.02000000
v -0.23955750 0.0000000e+0 -7.02000000
v 0.23955750 0.0000000e+0 -6.9466227e-14
v -0.23955750 0.0000000e+0 -6.9466227e-14
v -0.23955750 0.0000000e+0 -6.14250000
v 0.23955750 0.0000000e+0 -6.14250000
v 0.23955750 10.01235526 -7.02000000
v -0.23955750 10.01235526 -7.02000000
v -0.23955750 10.01235526 -6.14250000
v 0.23955750 10.01235526 -6.14250000
v -0.23955750 9.13485526 -7.02000000
v 0.23955750 9.13485526 -7.02000000
v 0.23955750 0.0000000e+0 7.02000000
v 0.23955750 0.87750000 7.02000000
v -0.23955750 0.87750000 7.02000000
v -0.23955750 0.0000000e+0 7.02000000
v -0.23955750 0.0000000e+0 6.14250000
v 0.23955750 0.0000000e+0 6.14250000
v 0.23955750 10.01235526 7.02000000
v -0.23955750 10.01235526 7.02000000
v -0.23955750 10.01235526 6.14250000
v 0.23955750 10.01235526 6.14250000
v -0.23955750 9.13485526 7.02000000
v 0.23955750 9.13485526 7.02000000
v 5.8742904e-2 0.87750000 -6.9466227e-14
v 0.23955750 0.54633774 -6.9466227e-14
v -5.8742904e-2 0.87750000 -6.9466227e-14
v -0.23955750 0.54633774 -6.9466227e-14
v -5.8742904e-2 0.87750000 -6.14250000
v -0.23955750 0.54633774 -6.14250000
v -0.23955750 0.87750000 -6.47366226
v 0.23955750 0.87750000 -6.47366226
v 0.23955750 0.54633774 -6.14250000
v 5.8742904e-2 0.87750000 -6.14250000
v 5.8742904e-2 9.13485526 -6.14250000
v 0.23955750 9.13485526 -6.47366226
v 0.23955750 9.46601753 -6.14250000
v -5.8742904e-2 9.13485526 -6.14250000
v -0.23955750 9.46601753 -6.14250000
v -0.23955750 9.13485526 -6.47366226
v -5.8742904e-2 0.87750000 6.14250000
v -0.23955750 0.54633774 6.14250000
v -0.23955750 0.87750000 6.47366226
v 5.8742904e-2 0.87750000 6.14250000
v 0.23955750 0.87750000 6.47366226
v 0.23955750 0.54633774 6.14250000
v 5.8742904e-2 9.13485526 6.14250000
v 0.23955750 9.13485526 6.47366226
v 0.23955750 9.46601753 6.14250000
v -0.23955750 9.46601753 6.14250000
v -0.23955750 9.13485526 6.47366226
v -5.8742904e-2 9.13485526 6.14250000
vt 0.0000000e+0 5.5511151e-17
vt 0.0000000e+0 3.8461538e-2
vt 0.0000000e+0 0.50000000
vt 0.0000000e+0 0.53846154
vt 0.0000000e+0 0.96153846
vt 0.0000000e+0 1.00000000
vt 5.5511151e-17 0.46153846
vt 5.5511151e-17 0.50000000
vt 2.3946427e-2 3.8461538e-2
vt 2.3946427e-2 0.46153846
vt 2.3946427e-2 0.53846154
vt 2.3946427e-2 0.96153846
vt 3.8461538e-2 5.5511151e-17
vt 3.8461538e-2 2.3946427e-2
vt 3.8461538e-2 3.8461538e-2
vt 3.8461538e-2 0.50000000
vt 3.8461538e-2 0.52394643
vt 3.8461538e-2 0.53846154
vt 3.8461538e-2 0.96153846
vt 3.8461538e-2 0.97605357
vt 3.8461538e-2 1.00000000
vt 3.8461538e-2 0.46153846
vt 3.8461538e-2 0.47605357
vt 3.8461538e-2 0.50000000
vt 0.30769231 0.0000000e+0
vt 0.30769231 2.3946427e-2
vt 0.30769231 3.8461538e-2
vt 0.30769231 0.50000000
vt 0.30769231 0.52394643
vt 0.30769231 0.53846154
vt 0.57692308 0.0000000e+0
vt 0.57692308 2.3946427e-2
vt 0.57692308 3.8461538e-2
vt 0.57692308 0.46153846
vt 0.57692308 0.47605357
vt 0.57692308 0.50000000
vt 0.57692308 0.52394643
vt 0.57692308 0.53846154
vt 0.57692308 0.96153846
vt 0.57692308 0.97605357
vt 0.57692308 1.00000000
vt 0.59143819 3.8461538e-2
vt 0.59143819 0.46153846
vt 0.59143819 0.53846154
vt 0.59143819 0.96153846
vt 0.61538462 0.0000000e+0
vt 0.61538462 3.8461538e-2
vt 0.61538462 0.0000000e+0
vt 0.61538462 3.8461538e-2
vt 0.61538462 0.30769231
vt 0.61538462 0.46153846
vt 0.61538462 0.50000000
vt 0.61538462 0.53846154
vt 0.61538462 0.57692308
vt 0.61538462 0.61538462
vt 0.61538462 0.96153846
vt 0.61538462 1.00000000
vt 0.63638462 0.0000000e+0
vt 0.63638462 3.8461538e-2
vt 0.63638462 0.30769231
vt 0.63638462 0.57692308
vt 0.63638462 0.61538462
vt 0.63638462 0.0000000e+0
vt 0.63638462 3.8461538e-2
vt 0.63638462 0.57692308
vt 0.63638462 0.61538462
vt 0.65738462 0.0000000e+0
vt 0.65738462 3.8461538e-2
vt 0.65738462 0.57692308
vt 0.65738462 0.61538462
vt 0.65738462 0.0000000e+0
vt 0.65738462 0.53846154
vt 0.65738462 0.53846154
vt 0.65738462 0.96153846
vt 0.66253411 0.0000000e+0
vt 0.66253411 0.26923077
vt 0.66253411 0.53846154
vt 0.66253411 0.53846154
vt 0.66253411 0.96153846
vt 0.66768361 0.0000000e+0
vt 0.66768361 3.8461538e-2
vt 0.66768361 0.46153846
vt 0.66768361 0.50000000
vt 0.66768361 0.53846154
vt 0.66768361 0.96153846
vt 0.66768361 1.00000000
vt 0.66768361 0.0000000e+0
vt 0.66768361 0.26923077
vt 0.66768361 0.53846154
vt 0.66768361 0.53846154
vt 0.66768361 0.96153846
vt 0.68868361 0.0000000e+0
vt 0.68868361 3.8461538e-2
vt 0.68868361 0.50000000
vt 0.68868361 0.53846154
vt 0.68868361 0.96153846
vt 0.68868361 1.00000000
vt 0.68868361 0.46153846
vt 0.68868361 0.50000000
vn 0.90453403 -0.30151134 -0.30151134
vn 0.44721360 0.0000000e+0 -0.89442719
vn -0.83205029 0.0000000e+0 -0.55470020
vn -0.72760688 -0.48507125 -0.48507125
vn 0.70710678 -0.70710678 9.1061528e-17
vn -0.70710678 -0.70710678 -8.1476104e-17
vn -0.70710678 -0.70710678 -1.0064695e-16
vn 0.60000000 -0.80000000 6.8682906e-17
vn 0.90453403 0.30151134 -0.30151134
vn -0.72760688 0.48507125 -0.48507125
vn -0.70710678 0.70710678 -7.4731553e-16
vn 0.60000000 0.80000000 -1.1489383e-15
vn -0.55470020 0.0000000e+0 -0.83205029
vn 0.70710678 0.0000000e+0 -0.70710678
vn 0.90453403 -0.30151134 0.30151134
vn 0.60000000 0.0000000e+0 0.80000000
vn -0.70710678 0.0000000e+0 0.70710678
vn -0.72760688 -0.48507125 0.48507125
vn -0.70710678 -0.70710678 -9.2659099e-17
vn 0.60000000 -0.80000000 7.8623853e-17
vn 0.72760688 0.48507125 0.48507125
vn -0.90453403 0.30151134 0.30151134
vn -0.60000000 0.80000000 -7.7720130e-17
vn 0.70710678 0.70710678 1.0144574e-16
vn -0.60000000 0.0000000e+0 0.80000000
vn 0.70710678 0.0000000e+0 0.70710678
vn 0.51028372 0.86000612 6.6881797e-17
vn 0.96894124 0.24729108 1.2163667e-16
vn -0.51028372 0.86000612 -6.0274982e-17
vn -0.96894124 0.24729108 -1.0889807e-16
vn -0.66056378 0.36868387 0.65400894
vn -0.97614468 0.20733949 6.4435285e-2
vn -0.97745326 9.0468734e-2 0.19078925
vn 0.97614468 6.4435285e-2 0.20733949
vn 0.97745326 0.19078925 9.0468734e-2
vn 0.66056378 0.65400894 0.36868387
vn 0.66782736 -0.52631104 0.52631104
vn 0.97745326 -9.0468734e-2 0.19078925
vn 0.97745326 -0.19078925 9.0468734e-2
vn -0.68576370 -0.51464946 0.51464946
vn -0.97614468 -0.20733949 6.4435285e-2
vn -0.97614468 -6.4435285e-2 0.20733949
vn -0.68576370 0.51464946 -0.51464946
vn -0.97614468 0.20733949 -6.4435285e-2
vn -0.97614468 6.4435285e-2 -0.20733949
vn 0.66782736 0.52631104 -0.52631104
vn 0.97745326 9.0468734e-2 -0.19078925
vn 0.97745326 0.19078925 -9.0468734e-2
vn 0.68576370 -0.51464946 -0.51464946
vn 0.97614468 -6.4435285e-2 -0.20733949
vn 0.97614468 -0.20733949 -6.4435285e-2
vn -0.97745326 -0.19078925 -9.0468734e-2
vn -0.97745326 -9.0468734e-2 -0.19078925
vn -0.66782736 -0.52631104 -0.52631104
g window_1_window_1_uv
usemtl window_1_uv
s 1
f 1/83/1 4/94/4 2/84/2
f 1/58/1 8/59/8 4/46/4
f 1/48/1 35/32/35 8/31/8
f 2/84/2 4/94/4 3/95/3
f 2/84/2 13/96/13 14/85/14
f 2/49/2 14/51/14 34/42/34
f 2/49/2 34/42/34 1/48/1
f 3/95/3 13/96/13 2/84/2
f 3/4/3 42/12/42 13/5/13
f 4/46/4 8/59/8 7/47/7
f 4/3/4 33/11/33 3/4/3
f 5/25/5 8/31/8 28/26/28
f 5/60/5 20/61/20 6/50/6
f 6/50/6 8/59/8 5/60/5
f 6/50/6 20/61/20 19/54/19
f 6/28/6 32/17/32 7/16/7
f 6/28/6 44/37/44 30/29/30
f 7/47/7 8/59/8 6/50/6
f 7/16/7 32/17/32 4/3/4
f 9/86/9 14/85/14 10/97/10
f 9/52/9 38/43/38 14/51/14
f 10/67/10 12/64/12 9/63/9
f 10/97/10 14/85/14 13/96/13
f 10/6/10 41/20/41 11/21/11
f 11/68/11 12/64/12 10/67/10
f 11/68/11 23/69/23 12/64/12
f 11/21/11 41/20/41 23/41/23
f 12/36/12 39/35/39 9/52/9
f 12/36/12 51/23/51 39/35/39
f 13/5/13 42/12/42 10/6/10
f 15/1/15 47/9/47 16/2/16
f 16/93/16 18/80/18 15/92/15
f 16/93/16 25/82/25 17/81/17
f 16/2/16 50/10/50 26/7/26
f 17/81/17 18/80/18 16/93/16
f 17/53/17 45/44/45 18/52/18
f 18/55/18 20/61/20 15/62/15
f 18/52/18 44/37/44 19/36/19
f 19/54/19 20/61/20 18/55/18
f 19/36/19 44/37/44 6/28/6
f 20/13/20 28/26/28 48/14/48
f 20/13/20 48/14/48 15/1/15
f 21/66/21 23/69/23 22/70/22
f 21/99/21 25/82/25 26/98/26
f 21/8/21 51/23/51 24/24/24
f 22/83/22 25/82/25 21/99/21
f 22/57/22 53/45/53 25/56/25
f 23/69/23 21/66/21 24/65/24
f 23/41/23 41/20/41 52/40/52
f 23/41/23 52/40/52 22/57/22
f 24/65/24 12/64/12 23/69/23
f 25/56/25 45/44/45 17/53/17
f 26/98/26 25/82/25 16/93/16
f 26/7/26 50/10/50 21/8/21
f 27/76/27 36/75/36 29/88/29
f 27/27/27 46/15/46 28/26/28
f 28/26/28 20/13/20 5/25/5
f 28/26/28 36/33/36 27/27/27
f 28/26/28 46/15/46 48/14/48
f 29/30/29 32/17/32 30/29/30
f 29/30/29 44/37/44 43/38/43
f 29/88/29 46/78/46 27/76/27
f 30/29/30 32/17/32 6/28/6
f 30/29/30 44/37/44 29/30/29
f 31/87/31 29/88/29 36/75/36
f 31/18/31 32/17/32 29/30/29
f 32/17/32 31/18/31 33/11/33
f 33/11/33 4/3/4 32/17/32
f 33/11/33 31/18/31 42/12/42
f 33/11/33 42/12/42 3/4/3
f 34/42/34 36/33/36 35/32/35
f 35/32/35 1/48/1 34/42/34
f 35/32/35 28/26/28 8/31/8
f 35/32/35 36/33/36 28/26/28
f 36/33/36 34/42/34 37/34/37
f 36/77/36 37/79/37 31/72/31
f 37/34/37 51/23/51 49/22/49
f 37/75/37 54/73/54 40/71/40
f 38/43/38 9/52/9 39/35/39
f 38/43/38 34/42/34 14/51/14
f 38/43/38 37/34/37 34/42/34
f 39/35/39 37/34/37 38/43/38
f 40/74/40 31/72/31 37/79/37
f 40/19/40 42/12/42 31/18/31
f 41/20/41 10/6/10 42/12/42
f 41/20/41 54/39/54 52/40/52
f 42/12/42 40/19/40 41/20/41
f 43/38/43 45/44/45 54/39/54
f 43/89/43 54/91/54 46/77/46
f 44/37/44 18/52/18 45/44/45
f 45/44/45 43/38/43 44/37/44
f 46/78/46 29/88/29 43/90/43
f 47/9/47 15/1/15 48/14/48
f 47/9/47 46/15/46 50/10/50
f 47/9/47 50/10/50 16/2/16
f 48/14/48 46/15/46 47/9/47
f 49/79/49 46/77/46 54/91/54
f 49/22/49 50/10/50 46/15/46
f 50/10/50 49/22/49 51/23/51
f 51/23/51 12/36/12 24/24/24
f 51/23/51 21/8/21 50/10/50
f 51/23/51 37/34/37 39/35/39
f 52/40/52 54/39/54 53/45/53
f 53/45/53 22/57/22 52/40/52
f 53/45/53 45/44/45 25/56/25
f 53/45/53 54/39/54 45/44/45
f 54/73/54 37/75/37 49/78/49
f 54/39/54 41/20/41 40/19/40
