# Exported from Wings 3D 1.4.1
mtllib door_2.mtl
o door_2
#24 vertices, 44 faces
v -0.36120000 19.98640000 11.01501489
v 0.36120000 19.98640000 11.01501489
v 0.36120000 19.98640000 -11.13858511
v -0.36120000 19.98640000 -11.13858511
v 0.36120000 0.0000000e+0 -11.13858511
v -0.36120000 0.0000000e+0 -11.13858511
v -0.36120000 0.0000000e+0 11.01501489
v 0.36120000 0.0000000e+0 11.01501489
v -0.36120000 0.0000000e+0 10.45181489
v -0.12040000 0.0000000e+0 9.97021489
v 0.12040000 0.0000000e+0 9.97021489
v 0.36120000 0.0000000e+0 10.45181489
v 0.36120000 0.0000000e+0 -10.57538511
v 0.12040000 0.0000000e+0 -10.09378511
v -0.12040000 0.0000000e+0 -10.09378511
v -0.36120000 0.0000000e+0 -10.57538511
v -0.36120000 19.43427131 10.31075751
v -0.12040000 19.26400000 9.97021489
v 0.12040000 19.26400000 9.97021489
v 0.36120000 19.43427131 10.31075751
v 0.12040000 19.26400000 -10.09378511
v 0.36120000 19.43427131 -10.43432774
v -0.12040000 19.26400000 -10.09378511
v -0.36120000 19.43427131 -10.43432774
vt 0.20400992 -1.2439918e-3
vt 0.20400992 0.91919955
vt 0.20400992 -1.2439918e-3
vt 0.20400992 0.91919955
vt 0.23337123 0.95696575
vt 0.23337123 0.92369671
vt 0.23691180 6.3690166e-4
vt 0.23691180 0.92108044
vt 0.23691180 0.92108044
vt 0.23691180 6.3690166e-4
vt 0.23691180 0.99284847
vt 0.23691180 0.95957943
vt 0.23727897 -1.2439918e-3
vt 0.23727897 -1.2439918e-3
vt 0.23727897 0.91919955
vt 0.23727897 0.91919955
vt 0.25555059 0.92369671
vt 0.25555059 0.95696575
vt 0.25877522 0.92172992
vt 0.25877522 0.95998366
vt 0.25909116 6.3690166e-4
vt 0.25909116 6.3690166e-4
vt 0.26212387 2.6252192e-3
vt 0.26212387 2.6252192e-3
vt 0.26233925 0.89565299
vt 0.26233925 0.89565299
vt 0.26430229 0.89648913
vt 0.26430229 0.89648913
vt 0.26661681 0.93531195
vt 0.26661681 0.94640163
vt 0.26664027 0.93478639
vt 0.26664027 0.94587607
vt 0.27778680 2.6272407e-3
vt 0.27778680 2.6272407e-3
vt 0.27786609 0.88865645
vt 0.27786609 0.88865645
vt 0.28886217 2.6262497e-3
vt 0.28886217 2.6262497e-3
vt 0.28894145 0.88865546
vt 0.28894145 0.88865546
vt 0.30250467 0.89648913
vt 0.30250467 0.89648913
vt 0.30452510 2.6248482e-3
vt 0.30452510 2.6248482e-3
vt 0.71020405 0.94640163
vt 0.71020405 0.93531195
vt 0.71070688 0.93493083
vt 0.71070688 0.94602052
vt 0.71804564 0.95998366
vt 0.71804564 0.92172992
vt 0.72160968 0.89565299
vt 0.72160968 0.89565299
vt 0.72179657 0.92384115
vt 0.72179657 0.95711020
vt 0.72485777 6.3690166e-4
vt 0.72485777 6.3690166e-4
vt 0.74397593 0.92384115
vt 0.74397593 0.95711020
vt 0.74703713 0.95957943
vt 0.74703713 0.99284847
vt 0.74703713 6.3690166e-4
vt 0.74703713 0.92108044
vt 0.74703713 6.3690166e-4
vt 0.74703713 0.92108044
vn -0.81649658 0.40824829 0.40824829
vn 0.81649658 0.40824829 0.40824829
vn 0.81649658 0.40824829 -0.40824829
vn -0.81649658 0.40824829 -0.40824829
vn 0.66666667 -0.33333333 -0.66666667
vn -0.40824829 -0.81649658 -0.40824829
vn -0.66666667 -0.33333333 0.66666667
vn 0.40824829 -0.81649658 0.40824829
vn -0.52933516 -0.83916006 -0.12495873
vn -0.42655555 -0.49943664 -0.75406459
vn 0.45323475 -0.50673185 -0.73334923
vn 0.76006476 -0.61514888 -0.20950757
vn 0.52933516 -0.83916006 0.12495873
vn 0.42655555 -0.49943664 0.75406459
vn -0.45323475 -0.50673185 0.73334923
vn -0.76006476 -0.61514888 0.20950757
vn -0.96266593 -0.22942600 -0.14365935
vn -0.50131556 -0.65332716 -0.56731501
vn 0.51832989 -0.65766234 -0.54663916
vn 0.95904875 -0.23184390 -0.16270801
vn 0.50131556 -0.65332716 0.56731501
vn 0.96266593 -0.22942600 0.14365935
vn -0.51832989 -0.65766234 0.54663916
vn -0.95904875 -0.23184390 0.16270801
g door_2_door_2_uv
usemtl door_2_uv
s 1
f 1/2/1 7/3/7 2/15/2
f 1/62/1 17/51/17 7/61/7
f 2/12/2 4/60/4 1/11/1
f 2/8/2 12/21/12 20/25/20
f 2/8/2 22/52/22 3/64/3
f 3/4/3 5/1/5 4/16/4
f 3/64/3 22/52/22 5/63/5
f 4/60/4 2/12/2 3/59/3
f 4/9/4 16/22/16 24/26/24
f 4/9/4 17/51/17 1/62/1
f 5/6/5 13/17/13 6/5/6
f 5/63/5 22/52/22 13/56/13
f 6/13/6 4/16/4 5/1/5
f 6/5/6 13/17/13 16/18/16
f 6/10/6 16/22/16 4/9/4
f 7/58/7 9/54/9 8/57/8
f 7/61/7 17/51/17 9/55/9
f 8/14/8 2/15/2 7/3/7
f 8/57/8 9/54/9 12/53/12
f 8/7/8 12/21/12 2/8/2
f 9/44/9 17/41/17 10/38/10
f 10/48/10 12/53/12 9/54/9
f 10/38/10 19/35/19 11/34/11
f 11/47/11 12/53/12 10/48/10
f 13/43/13 22/42/22 14/37/14
f 14/31/14 16/18/16 13/17/13
f 14/37/14 23/36/23 15/33/15
f 15/32/15 16/18/16 14/31/14
f 15/33/15 23/36/23 16/23/16
f 17/49/17 23/30/23 18/45/18
f 18/39/18 10/38/10 17/41/17
f 18/45/18 23/30/23 19/46/19
f 19/35/19 10/38/10 18/39/18
f 19/35/19 12/24/12 11/34/11
f 19/46/19 22/19/22 20/50/20
f 20/27/20 12/24/12 19/35/19
f 20/25/20 22/52/22 2/8/2
f 21/40/21 14/37/14 22/42/22
f 21/29/21 19/46/19 23/30/23
f 22/19/22 19/46/19 21/29/21
f 23/36/23 14/37/14 21/40/21
f 23/30/23 17/49/17 24/20/24
f 24/28/24 16/23/16 23/36/23
f 24/26/24 17/51/17 4/9/4
