# Exported from Wings 3D 1.4.1
mtllib rug_1.mtl
o rug_1
#12 vertices, 20 faces
v -7.46400000 0.0000000e+0 9.95200000
v 7.46400000 0.0000000e+0 9.95200000
v -7.46400000 0.0000000e+0 -9.95200000
v 7.46400000 0.0000000e+0 -9.95200000
v -7.41130416 6.2200000e-2 9.88173888
v 7.41130416 6.2200000e-2 9.88173888
v -7.41130416 6.2200000e-2 -9.88173888
v 7.41130416 6.2200000e-2 -9.88173888
v -7.26620400 0.12440000 9.72932400
v 7.26620400 0.12440000 9.72932400
v 7.26620400 0.12440000 -9.72932400
v -7.26620400 0.12440000 -9.72932400
vt 8.2333333e-3 0.0000000e+0
vt 8.2333333e-3 1.00000000
vt 1.0880833e-2 3.5300000e-3
vt 1.0880833e-2 0.99647000
vt 1.8170833e-2 1.1187500e-2
vt 1.8170833e-2 0.98881250
vt 0.74829583 1.1187500e-2
vt 0.74829583 0.98881250
vt 0.75558583 3.5300000e-3
vt 0.75558583 0.99647000
vt 0.75823333 0.0000000e+0
vt 0.75823333 1.00000000
vt 0.85087778 0.49008889
vt 0.85087778 0.55675556
vt 0.90087778 0.49008889
vt 0.90087778 0.55675556
vn -0.32188034 0.90142529 0.28952633
vn 0.32188034 0.90142529 0.28952633
vn -0.32188034 0.90142529 -0.28952633
vn 0.32188034 0.90142529 -0.28952633
vn -0.13600676 0.98208443 0.13043136
vn 0.13600676 0.98208443 0.13043136
vn 0.13600676 0.98208443 -0.13043136
vn -0.13600676 0.98208443 -0.13043136
vn -0.44288236 0.80982723 0.38475327
vn 0.0000000e+0 -1.00000000 0.0000000e+0
vn -0.44288236 0.80982723 0.38475327
vn 0.44288236 0.80982723 0.38475327
vn 0.44288236 0.80982723 0.38475327
vn 0.0000000e+0 -1.00000000 0.0000000e+0
vn 0.44288236 0.80982723 0.38475327
vn 0.44288236 0.80982723 0.38475327
vn 0.0000000e+0 -1.00000000 0.0000000e+0
vn 0.0000000e+0 -1.00000000 0.0000000e+0
vn -0.44288236 0.80982723 -0.38475327
vn -0.44288236 0.80982723 -0.38475327
vn -0.44288236 0.80982723 -0.38475327
vn 0.0000000e+0 -1.00000000 0.0000000e+0
vn -0.44288236 0.80982723 -0.38475327
vn 0.0000000e+0 -1.00000000 0.0000000e+0
vn 0.44288236 0.80982723 -0.38475327
vn 0.44288236 0.80982723 -0.38475327
g rug_1_rug_1_uv
usemtl rug_1_uv
s 1
f 1/15/10 3/16/22 2/13/17
f 2/13/14 3/16/18 4/14/24
s 2
f 1/1/9 2/11/15 5/3/1
f 2/11/13 8/10/4 6/9/2
f 3/2/20 5/3/1 7/4/3
f 3/2/19 8/10/4 4/12/25
f 4/12/26 8/10/4 2/11/16
f 5/3/1 3/2/23 1/1/11
f 5/3/1 12/6/8 7/4/3
f 6/9/2 5/3/1 2/11/12
f 6/9/2 8/10/4 10/7/6
f 7/4/3 8/10/4 3/2/21
f 7/4/3 12/6/8 8/10/4
f 8/10/4 12/6/8 11/8/7
f 9/5/5 5/3/1 10/7/6
f 9/5/5 12/6/8 5/3/1
f 10/7/6 5/3/1 6/9/2
f 10/7/6 12/6/8 9/5/5
f 11/8/7 10/7/6 8/10/4
f 11/8/7 12/6/8 10/7/6
