mtllib Demo_Table.mtl
# Exported from Wings 3D 1.2
o cube1
#58 vertices, 96 faces
v -6.104274999999999 4.887401437499999 3.9295
v 6.104274999999999 4.887401437499999 3.9295
v -6.104274999999999 4.887401437499999 -3.9295
v -6.104274999999999 5.293901437499999 -3.9295
v 6.104274999999999 5.293901437499999 -3.9295
v 6.104274999999999 4.887401437499999 -3.9295
v -6.104274999999999 5.085251208333332 3.9295
v -6.104274999999999 5.179227833333332 3.8843453808333335
v -6.104274999999998 5.293901437499999 3.6874657099999997
v -6.1042749999999995 5.2549750416666665 3.7964786191666664
v 6.104274999999999 5.085251208333332 3.9295
v 6.104274999999999 5.179227833333332 3.8843453808333335
v 6.1042749999999995 5.2549750416666665 3.7964786191666664
v 6.104274999999998 5.293901437499999 3.6874657099999997
v 5.833274999999999 4.887401437499999 3.61514
v -5.833274999999999 4.887401437499999 3.61514
v -5.833274999999999 4.887401437499999 -3.61514
v 5.833274999999999 4.887401437499999 -3.61514
v -6.104274999999999 4.5796085416666665 3.9295
v 6.104274999999999 4.5796085416666665 3.9295
v -6.104274999999999 4.5796085416666665 -3.9295
v 6.104274999999999 4.5796085416666665 -3.9295
v 5.833274999999999 4.5796085416666665 3.61514
v -5.833274999999999 4.5796085416666665 3.61514
v -5.833274999999999 4.5796085416666665 -3.61514
v 5.833274999999999 4.5796085416666665 -3.61514
v -6.107777791666666 0.0 3.9243270525000002
v -6.107777791666666 4.592175458333333 3.9243270525000002
v -5.810511124999998 4.592175458333333 3.9243270525
v -5.810511124999998 0.0 3.9243270525
v -6.107777791666665 0.0 3.5794977191666666
v -6.107777791666665 4.592175458333333 3.5794977191666666
v -5.810511124999998 4.592175458333333 3.5794977191666675
v -5.810511124999998 0.0 3.5794977191666675
v -6.107777791666667 0.0 -3.5870191591666676
v -6.107777791666667 4.592175458333333 -3.5870191591666676
v -5.810511124999999 4.592175458333333 -3.5870191591666676
v -5.810511124999999 0.0 -3.5870191591666676
v -6.107777791666666 0.0 -3.931848492500001
v -6.107777791666666 4.592175458333333 -3.931848492500001
v -5.810511124999999 4.592175458333333 -3.9318484925000003
v -5.810511124999999 0.0 -3.9318484925000003
v 5.806908166666666 0.0 3.9243270525000002
v 5.806908166666666 4.592175458333333 3.9243270525000002
v 6.1041748333333326 4.592175458333333 3.9243270525000007
v 6.1041748333333326 0.0 3.9243270525000007
v 5.806908166666666 0.0 3.5794977191666675
v 5.806908166666666 4.592175458333333 3.5794977191666675
v 6.1041748333333326 4.592175458333333 3.579497719166667
v 6.1041748333333326 0.0 3.579497719166667
v 5.806908166666666 0.0 -3.5870191591666662
v 5.806908166666666 4.592175458333333 -3.5870191591666662
v 6.1041748333333326 4.592175458333333 -3.587019159166667
v 6.1041748333333326 0.0 -3.587019159166667
v 5.806908166666665 0.0 -3.9318484925000003
v 5.806908166666665 4.592175458333333 -3.9318484925000003
v 6.1041748333333326 4.592175458333333 -3.9318484925000003
v 6.1041748333333326 0.0 -3.9318484925000003
vt 0.0000000e+0 0.0000000e+0
vt 0.0000000e+0 0.31256041
vt 0.0000000e+0 0.31256041
vt 0.0000000e+0 0.31611394
vt 0.0000000e+0 0.32047943
vt 0.0000000e+0 0.62337000
vt 0.0000000e+0 0.62337000
vt 0.0000000e+0 0.63756984
vt 0.0000000e+0 0.65632346
vt 0.0000000e+0 0.67049347
vt 0.0000000e+0 0.67960197
vt 0.0000000e+0 0.68404476
vt 0.0000000e+0 0.68404476
vt 0.0000000e+0 0.97160033
vt 0.0000000e+0 0.98580017
vt 0.0000000e+0 0.98580017
vt 0.0000000e+0 1.00000000
vt 1.2502416e-2 1.2502416e-2
vt 1.2502416e-2 0.30005799
vt 0.53822903 0.68404476
vt 0.53822903 0.89590191
vt 0.53822903 0.97160033
vt 0.53822903 0.97160033
vt 0.53822903 0.98580017
vt 0.53822903 1.00000000
vt 0.53822903 0.89590191
vt 0.53822903 0.90961613
vt 0.53822903 0.90961613
vt 0.53822903 0.92333034
vt 0.53822903 0.92333034
vt 0.53822903 0.93704455
vt 0.53822903 0.93704455
vt 0.53822903 0.95075877
vt 0.53822903 0.95075877
vt 0.53822903 0.96447298
vt 0.53822903 0.97160033
vt 0.53822903 0.98531455
vt 0.53822903 0.98580017
vt 0.53822903 0.99951438
vt 0.55073144 1.2502416e-2
vt 0.55073144 0.30005799
vt 0.55194324 0.89590191
vt 0.55194324 0.90961613
vt 0.55194324 0.90961613
vt 0.55194324 0.92333034
vt 0.55194324 0.92333034
vt 0.55194324 0.93704455
vt 0.55194324 0.93704455
vt 0.55194324 0.95075877
vt 0.55194324 0.95075877
vt 0.55194324 0.96447298
vt 0.55194324 0.97160033
vt 0.55194324 0.98531455
vt 0.55194324 0.98580017
vt 0.55194324 0.99951438
vt 0.55194324 0.68404476
vt 0.55194324 0.89590191
vt 0.56323386 0.0000000e+0
vt 0.56323386 8.3266727e-17
vt 0.56323386 1.4199833e-2
vt 0.56323386 2.3327509e-2
vt 0.56323386 3.2953458e-2
vt 0.56323386 4.7153291e-2
vt 0.56323386 6.5906916e-2
vt 0.56323386 8.0106749e-2
vt 0.56323386 8.0106749e-2
vt 0.56323386 9.4306583e-2
vt 0.56323386 0.30616374
vt 0.56323386 0.31256041
vt 0.56323386 0.31256041
vt 0.56323386 0.31611394
vt 0.56323386 0.32047943
vt 0.56323386 0.51802090
vt 0.56323386 0.51802090
vt 0.56323386 0.62337000
vt 0.56323386 0.62337000
vt 0.56323386 0.63756984
vt 0.56323386 0.65632346
vt 0.56323386 0.67049347
vt 0.56323386 0.67960197
vt 0.56323386 0.68404476
vt 0.56323386 0.72987806
vt 0.56323386 0.72987806
vt 0.56323386 0.94173522
vt 0.56502971 2.7663063e-2
vt 0.56852426 3.1157613e-2
vt 0.57285981 3.2953458e-2
vt 0.57694807 0.72987806
vt 0.57694807 0.94173522
vt 0.57694807 9.4306583e-2
vt 0.57694807 0.30616374
vt 0.57694807 0.51802090
vt 0.57694807 0.51802090
vt 0.57694807 0.72987806
vt 0.57694807 0.94173522
vt 0.59066229 0.72987806
vt 0.59066229 0.72987806
vt 0.59066229 0.94173522
vt 0.60437650 0.72987806
vt 0.60437650 0.94173522
vt 0.60437650 0.94173522
vt 0.61809071 0.72987806
vt 0.61809071 0.94173522
vt 0.61809071 0.72987806
vt 0.61809071 0.94173522
vt 0.63180492 0.72987806
vt 0.63180492 0.94173522
vt 0.63180492 0.72987806
vt 0.63180492 0.94173522
vt 0.64551914 0.72987806
vt 0.64551914 0.94173522
vt 0.65923335 0.72987806
vt 0.65923335 0.94173522
vt 0.65923335 0.72987806
vt 0.65923335 0.94173522
vt 0.67294756 0.72987806
vt 0.67294756 0.94173522
vt 0.85078944 6.5906916e-2
vt 0.85078944 0.27776407
vt 0.85078944 0.48962123
vt 0.85078944 0.70147839
vt 0.85078944 0.70147839
vt 0.85078944 0.91333555
vt 0.85078944 6.5906916e-2
vt 0.85078944 8.0106749e-2
vt 0.85078944 8.0106749e-2
vt 0.85078944 9.4306583e-2
vt 0.85078944 0.91333555
vt 0.85078944 0.92704976
vt 0.86450365 0.91333555
vt 0.86450365 0.92704976
vt 0.86450365 6.5906916e-2
vt 0.86450365 0.27776407
vt 0.86450365 0.48962123
vt 0.86450365 0.70147839
vt 0.86450365 0.70147839
vt 0.86450365 0.91333555
vt 0.86616832 6.5906916e-2
vt 0.87050388 6.4111071e-2
vt 0.87399843 6.0616521e-2
vt 0.87579427 5.5511151e-17
vt 0.87579427 1.4199833e-2
vt 0.87579427 3.2953458e-2
vt 0.87579427 4.7153291e-2
vt 0.87579427 5.6280967e-2
vn -0.83205029 -1.5528740e-15 0.55470020
vn 0.70710678 -9.8976683e-16 0.70710678
vn -0.70710678 -9.8976683e-16 -0.70710678
vn -0.57735027 0.57735027 -0.57735027
vn 0.33333333 0.66666667 -0.66666667
vn 0.83205029 -1.5528740e-15 -0.55470020
vn -0.71316433 9.0972058e-2 0.69506886
vn -0.24699991 0.53835617 0.80570694
vn -0.71393252 0.68676008 0.13660507
vn -0.71393252 0.58220708 0.38901834
vn 0.71316433 0.18194412 0.67697339
vn 0.45418155 0.49496261 0.74076389
vn 0.45418155 0.74076389 0.49496261
vn 0.89785096 0.43183927 8.5898172e-2
vn -0.57735027 -0.57735027 -0.57735027
vn 0.57735027 -0.57735027 -0.57735027
vn 0.57735027 -0.57735027 0.57735027
vn -0.57735027 -0.57735027 0.57735027
vn -0.40824829 -0.81649658 0.40824829
vn 0.40824829 -0.81649658 0.40824829
vn -0.40824829 -0.81649658 -0.40824829
vn 0.40824829 -0.81649658 -0.40824829
vn -0.40824829 -0.81649658 -0.40824829
vn 0.40824829 -0.81649658 -0.40824829
vn 0.40824829 -0.81649658 0.40824829
vn -0.40824829 -0.81649658 0.40824829
vn -0.57735027 -0.57735027 0.57735027
vn -0.57735027 0.57735027 0.57735027
vn 0.57735027 0.57735027 0.57735027
vn 0.57735027 -0.57735027 0.57735027
vn -0.57735027 -0.57735027 -0.57735027
vn -0.57735027 0.57735027 -0.57735027
vn 0.57735027 0.57735027 -0.57735027
vn 0.57735027 -0.57735027 -0.57735027
vn -0.57735027 -0.57735027 0.57735027
vn -0.57735027 0.57735027 0.57735027
vn 0.57735027 0.57735027 0.57735027
vn 0.57735027 -0.57735027 0.57735027
vn -0.57735027 -0.57735027 -0.57735027
vn -0.57735027 0.57735027 -0.57735027
vn 0.57735027 0.57735027 -0.57735027
vn 0.57735027 -0.57735027 -0.57735027
vn -0.57735027 -0.57735027 0.57735027
vn -0.57735027 0.57735027 0.57735027
vn 0.57735027 0.57735027 0.57735027
vn 0.57735027 -0.57735027 0.57735027
vn -0.57735027 -0.57735027 -0.57735027
vn -0.57735027 0.57735027 -0.57735027
vn 0.57735027 0.57735027 -0.57735027
vn 0.57735027 -0.57735027 -0.57735027
vn -0.57735027 -0.57735027 0.57735027
vn -0.57735027 0.57735027 0.57735027
vn 0.57735027 0.57735027 0.57735027
vn 0.57735027 -0.57735027 0.57735027
vn -0.57735027 -0.57735027 -0.57735027
vn -0.57735027 0.57735027 -0.57735027
vn 0.57735027 0.57735027 -0.57735027
vn 0.57735027 -0.57735027 -0.57735027
g cube1
usemtl mat2
s 1
f 1/10/1 2/79/2 7/11/7
f 1/144/1 9/138/9 3/63/3
f 1/10/1 19/9/19 2/79/2
f 2/60/2 14/87/14 11/61/11
f 2/79/2 19/9/19 20/78/20
f 2/60/2 22/141/22 6/142/6
f 3/77/3 5/9/5 6/8/6
f 3/63/3 9/138/9 4/64/4
f 3/63/3 19/143/19 1/144/1
f 3/77/3 22/6/22 21/75/21
f 4/78/4 5/9/5 3/77/3
f 4/7/4 9/5/9 5/76/5
f 5/76/5 9/5/9 14/72/14
f 5/143/5 14/87/14 6/142/6
f 6/142/6 14/87/14 2/60/2
f 6/8/6 22/6/22 3/77/3
f 7/145/7 9/138/9 1/144/1
f 7/11/7 11/80/11 8/12/8
f 8/3/8 13/71/13 10/4/10
f 9/138/9 7/145/7 10/139/10
f 10/139/10 7/145/7 8/140/8
f 10/4/10 13/71/13 9/5/9
f 11/80/11 7/11/7 2/79/2
f 12/81/12 8/12/8 11/80/11
f 12/85/12 11/61/11 13/86/13
f 13/71/13 8/3/8 12/70/12
f 13/86/13 11/61/11 14/87/14
f 14/72/14 9/5/9 13/71/13
f 15/15/15 23/14/23 16/24/16
f 16/20/16 18/14/18 15/13/15
f 16/24/16 23/14/23 24/23/24
f 16/66/16 25/124/25 17/126/17
f 17/22/17 18/14/18 16/20/16
f 17/17/17 25/16/25 18/25/18
f 18/67/18 23/125/23 15/127/15
f 18/25/18 25/16/25 26/24/26
f 19/59/19 25/41/25 24/40/24
f 20/1/20 19/59/19 23/18/23
f 20/58/20 22/141/22 2/60/2
f 21/62/21 19/143/19 3/63/3
f 21/69/21 22/2/22 25/41/25
f 22/2/22 23/18/23 26/19/26
f 23/18/23 22/2/22 20/1/20
f 24/40/24 23/18/23 19/59/19
f 24/64/24 25/124/25 16/66/16
f 25/41/25 19/59/19 21/69/21
f 26/65/26 23/125/23 18/67/18
f 26/19/26 25/41/25 22/2/22
f 27/104/27 30/106/30 28/105/28
f 27/42/27 31/44/31 30/26/30
f 28/105/28 30/106/30 29/107/29
f 28/57/28 31/20/31 27/56/27
f 28/33/28 33/51/33 32/35/32
f 29/49/29 33/51/33 28/33/28
f 30/26/30 31/44/31 34/28/34
f 30/122/30 33/137/33 29/123/29
f 31/88/31 33/84/33 34/82/34
f 32/21/32 31/20/31 28/57/28
f 32/89/32 33/84/33 31/88/31
f 34/136/34 33/137/33 30/122/30
f 35/108/35 38/110/38 36/109/36
f 35/43/35 39/46/39 38/27/38
f 36/109/36 38/110/38 37/111/37
f 36/133/36 39/118/39 35/132/35
f 36/36/36 41/53/41 40/37/40
f 37/52/37 41/53/41 36/36/36
f 38/27/38 39/46/39 42/30/42
f 38/67/38 41/91/41 37/68/37
f 39/97/39 41/95/41 42/88/42
f 40/119/40 39/118/39 36/133/36
f 40/98/40 41/95/41 39/97/39
f 42/90/42 41/91/41 38/67/38
f 43/110/43 46/112/46 44/111/44
f 43/45/43 47/48/47 46/29/46
f 44/111/44 46/112/46 45/113/45
f 44/134/44 47/119/47 43/133/43
f 44/38/44 49/55/49 48/39/48
f 45/54/45 49/55/49 44/38/44
f 46/29/46 47/48/47 50/32/50
f 46/68/46 49/92/49 45/73/45
f 47/99/47 49/98/49 50/96/50
f 48/120/48 47/119/47 44/134/44
f 48/100/48 49/98/49 47/99/47
f 50/91/50 49/92/49 46/68/46
f 51/114/51 54/116/54 52/115/52
f 51/47/51 55/50/55 54/31/54
f 52/115/52 54/116/54 53/117/53
f 52/135/52 55/120/55 51/134/51
f 52/128/52 57/131/57 56/129/56
f 53/130/53 57/131/57 52/128/52
f 54/31/54 55/50/55 58/34/58
f 54/74/54 57/94/57 53/83/53
f 55/102/55 57/101/57 58/99/58
f 56/121/56 55/120/55 52/135/52
f 56/103/56 57/101/57 55/102/55
f 58/93/58 57/94/57 54/74/54
