# Exported from Wings 3D 1.4.1
mtllib table_1.mtl
o table_1
#64 vertices, 124 faces
v -7.71672500 5.56615861 -4.31282560
v 7.71672500 5.56615861 -4.31282560
v 7.71672500 5.56615861 4.41282560
v -7.71672500 5.56615861 4.41282560
v -6.86831237 5.56615861 -3.68021589
v 6.86831237 5.56615861 -3.68021589
v 6.86831237 5.56615861 3.78021589
v -6.86831237 5.56615861 3.78021589
v -7.71672500 5.03198820 -4.31282560
v 7.71672500 5.03198820 -4.31282560
v 7.71672500 5.03198820 4.41282560
v -7.71672500 5.03198820 4.41282560
v -6.86831237 5.03198820 -3.68021589
v 6.86831237 5.03198820 -3.68021589
v 6.86831237 5.03198820 3.78021589
v -6.86831237 5.03198820 3.78021589
v -7.71672500 5.03198820 -3.68021589
v -7.71672500 5.03198820 3.78021589
v 7.71672500 5.03198820 3.78021589
v 7.71672500 5.03198820 -3.68021589
v 6.86831237 5.03198820 -4.31282560
v -6.86831237 5.03198820 -4.31282560
v -6.86831237 5.03198820 4.41282560
v 6.86831237 5.03198820 4.41282560
v -7.94452500 0.0000000e+0 4.61693440
v -7.08472237 0.0000000e+0 3.97411925
v -7.08472237 0.0000000e+0 4.61693440
v -7.94452500 0.0000000e+0 3.97411925
v -7.94452500 0.0000000e+0 -4.51693440
v -7.08472237 0.0000000e+0 -3.87411925
v -7.08472237 0.0000000e+0 -4.51693440
v -7.94452500 0.0000000e+0 -3.87411925
v 7.94452500 0.0000000e+0 -4.51693440
v 7.08472237 0.0000000e+0 -3.87411925
v 7.94452500 0.0000000e+0 -3.87411925
v 7.08472237 0.0000000e+0 -4.51693440
v 7.94452500 0.0000000e+0 4.61693440
v 7.08472237 0.0000000e+0 3.97411925
v 7.08472237 0.0000000e+0 4.61693440
v 7.94452500 0.0000000e+0 3.97411925
v 7.92467632 5.56615861 -4.49914999
v -7.92467632 5.56615861 -4.49914999
v 7.92467632 5.56615861 4.59914999
v -7.92467632 5.56615861 4.59914999
v 7.90466000 5.86885518 4.64244800
v -7.90466000 5.86885518 4.64244800
v -7.90466000 5.61957565 4.64244800
v 7.90466000 5.61957565 4.64244800
v -7.90466000 5.92227222 4.58121536
v 7.90466000 5.92227222 4.58121536
v 7.90466000 5.92227222 -4.48121536
v -7.90466000 5.92227222 -4.48121536
v -7.90466000 5.86885518 -4.54244800
v 7.90466000 5.86885518 -4.54244800
v 7.90466000 5.61957565 -4.54244800
v -7.90466000 5.61957565 -4.54244800
v 7.97300000 5.86885518 4.58121536
v 7.97300000 5.61957565 4.58121536
v 7.97300000 5.61957565 -4.48121536
v 7.97300000 5.86885518 -4.48121536
v -7.97300000 5.86885518 4.58121536
v -7.97300000 5.86885518 -4.48121536
v -7.97300000 5.61957565 -4.48121536
v -7.97300000 5.61957565 4.58121536
vt 0.0000000e+0 1.1102230e-16
vt 0.0000000e+0 3.3593083e-3
vt 0.0000000e+0 0.50053693
vt 0.0000000e+0 0.50463984
vt 0.0000000e+0 0.52209161
vt 0.0000000e+0 0.55070803
vt 0.0000000e+0 0.55070803
vt 0.0000000e+0 0.55071596
vt 1.9428903e-16 0.49914546
vt 7.5484014e-6 0.52019636
vt 9.8391861e-4 0.50290790
vt 9.8391861e-4 0.51846377
vt 2.3883404e-3 0.52340826
vt 3.3593083e-3 0.0000000e+0
vt 3.3593083e-3 3.3593083e-3
vt 3.3593083e-3 0.50053693
vt 3.3593083e-3 0.50389624
vt 3.3722665e-3 0.50422455
vt 3.3798149e-3 0.51978106
vt 1.0222016e-2 1.0222016e-2
vt 1.0222016e-2 0.48892344
vt 1.1819788e-2 0.96454523
vt 1.1819788e-2 0.96454523
vt 1.1819788e-2 0.96454638
vt 1.1819788e-2 1.00000000
vt 1.1819788e-2 1.00000000
vt 1.1819788e-2 0.96454638
vt 3.7224946e-2 0.55070803
vt 3.7224946e-2 0.55070803
vt 4.4612314e-2 0.55071596
vt 4.5541222e-2 0.52154719
vt 4.5541222e-2 0.52154719
vt 4.5541222e-2 0.52210358
vt 4.5541222e-2 0.55569666
vt 4.5541222e-2 0.55625305
vt 4.5541222e-2 0.55625305
vt 4.8453745e-2 0.96454638
vt 4.8453745e-2 0.96454638
vt 5.0457400e-2 4.2564623e-2
vt 5.0457400e-2 0.45185434
vt 5.5841113e-2 0.96454523
vt 5.5841113e-2 0.96454523
vt 0.48048178 0.96454638
vt 0.48048178 0.96454638
vt 0.49171058 0.55070803
vt 0.49171058 0.55070803
vt 0.51711574 0.96454638
vt 0.51711574 1.00000000
vt 0.51711574 0.96454638
vt 0.51711574 1.00000000
vt 0.52893553 0.55070803
vt 0.52893553 0.55070803
vt 0.64879799 0.75707098
vt 0.64879799 0.79429592
vt 0.69341030 0.75707098
vt 0.69341030 0.79429592
vt 0.72077618 0.52154719
vt 0.72077618 0.52154719
vt 0.72077618 0.52210358
vt 0.72077618 0.55569666
vt 0.72077618 0.55625305
vt 0.72077618 0.55625305
vt 0.72569236 4.2564623e-2
vt 0.72569236 0.45185434
vt 0.76858913 0.96454523
vt 0.76858913 0.96454523
vt 0.76886580 1.0222016e-2
vt 0.76886580 0.48892344
vt 0.77810390 0.50290790
vt 0.77810390 0.51846377
vt 0.77908782 0.52209161
vt 0.77908782 0.0000000e+0
vt 0.77908782 0.49914546
vt 0.77981792 0.55071596
vt 0.78047929 0.0000000e+0
vt 0.78047929 3.3593083e-3
vt 0.78047929 0.50053693
vt 0.78047929 0.50389624
vt 0.78048635 0.50422455
vt 0.78049390 0.51978106
vt 0.78147025 0.52340826
vt 0.78383860 3.3593083e-3
vt 0.78383860 0.50053693
vt 0.78649069 3.3794937e-3
vt 0.78649069 0.50054795
vt 0.78671661 3.3593083e-3
vt 0.78671661 0.50053693
vt 0.78690561 0.0000000e+0
vt 0.78712985 2.2204460e-16
vt 0.78712985 0.50389624
vt 0.80204742 3.3912543e-3
vt 0.80204742 0.50055971
vt 0.80227432 3.3593083e-3
vt 0.80227432 0.50053693
vt 0.80246234 1.1760614e-5
vt 0.80268755 0.0000000e+0
vt 0.80268755 0.50389624
vt 0.80567440 2.3955569e-3
vt 0.80567440 0.50153181
vt 0.80590032 2.3753897e-3
vt 0.80590032 0.50152085
vt 0.80782561 4.4114990e-2
vt 0.80782561 0.45340471
vt 0.81188127 4.4114990e-2
vt 0.81188127 0.45340471
vt 0.81261045 0.96454523
vt 0.81261045 0.96454523
vt 0.81261045 1.00000000
vt 0.82443024 0.55071596
vt 0.84547436 4.4114990e-2
vt 0.84547436 0.45340471
vt 0.84953002 4.4114990e-2
vt 0.84953002 0.45340471
vt 0.88635489 0.54826857
vt 0.88635489 0.54826857
vt 0.89004858 0.54826857
vt 0.89004858 0.54826857
vt 0.89817468 0.96211352
vt 0.89817468 0.96211352
vt 0.90186837 0.96211352
vt 0.90186837 0.96211352
vt 0.90186837 0.96211352
vt 0.92727352 0.54826857
vt 0.92727352 0.54826857
vt 0.92727352 0.54826857
vt 0.93096721 0.54826857
vt 0.93096721 0.54826857
vt 0.93850232 0.96211352
vt 0.93850232 0.96211352
vt 0.94219601 0.96211352
vt 0.94219601 0.96211352
vn 0.32981949 -0.87439707 -0.35587762
vn -0.23278075 -0.89389457 -0.38310002
vn 0.31009507 -0.92557941 0.21712623
vn -0.31569298 -0.88694299 0.33714994
vn 0.33689699 0.40228636 0.85127323
vn -0.30330552 0.35504942 0.88427692
vn -0.35955629 -0.26710063 0.89407859
vn 0.31284279 -0.25374015 0.91528429
vn -0.32125092 0.91961830 0.22605315
vn 0.24896871 0.87417743 0.41692734
vn 0.27699954 0.91296318 -0.29961556
vn -0.31227764 0.88698648 -0.34020238
vn -0.30330552 0.35504942 -0.88427692
vn 0.42095440 0.32057115 -0.84854672
vn 0.23982086 -0.29463460 -0.92502779
vn -0.35955629 -0.26710063 -0.89407859
vn 0.85859500 0.37652508 0.34791305
vn 0.86512503 -0.28597998 0.41203658
vn 0.89211594 -0.27435909 -0.35896552
vn 0.82033960 0.42246990 -0.38543758
vn -0.88967417 0.33730707 0.30773985
vn -0.79687003 0.52049848 -0.30672380
vn -0.89211594 -0.27435909 -0.35896552
vn -0.83819944 -0.22717854 0.49579392
vn 0.0000000e+0 -1.00000000 -3.2945509e-15
vn -1.00000000 0.0000000e+0 0.0000000e+0
vn 0.0000000e+0 0.0000000e+0 -1.00000000
vn -1.00000000 0.0000000e+0 0.0000000e+0
vn 0.0000000e+0 0.0000000e+0 -1.00000000
vn 0.0000000e+0 -1.00000000 -3.2945509e-15
vn 0.0000000e+0 -1.00000000 -3.2945509e-15
vn 0.0000000e+0 -1.00000000 -1.6438253e-15
vn 0.0000000e+0 -1.00000000 -1.6438253e-15
vn 0.0000000e+0 0.0000000e+0 -1.00000000
vn 1.00000000 -1.1886532e-15 0.0000000e+0
vn 1.00000000 -1.1886532e-15 0.0000000e+0
vn 0.0000000e+0 0.0000000e+0 -1.00000000
vn 0.0000000e+0 -1.00000000 -1.6438253e-15
vn 1.00000000 -1.1886532e-15 0.0000000e+0
vn 0.0000000e+0 0.0000000e+0 -1.00000000
vn 0.0000000e+0 -1.00000000 -1.6438253e-15
vn 1.00000000 0.0000000e+0 0.0000000e+0
vn 0.0000000e+0 0.0000000e+0 1.00000000
vn 0.0000000e+0 -1.00000000 4.9418264e-15
vn 1.00000000 0.0000000e+0 0.0000000e+0
vn 0.0000000e+0 0.0000000e+0 1.00000000
vn 0.0000000e+0 -1.00000000 4.9418264e-15
vn 0.0000000e+0 -1.00000000 2.1917670e-15
vn -1.00000000 -1.1886532e-15 0.0000000e+0
vn 0.0000000e+0 0.0000000e+0 1.00000000
vn -1.00000000 -1.1886532e-15 0.0000000e+0
vn 0.0000000e+0 0.0000000e+0 1.00000000
vn -1.00000000 -1.1886532e-15 0.0000000e+0
vn 0.0000000e+0 0.0000000e+0 1.00000000
vn 0.0000000e+0 -1.00000000 2.1917670e-15
vn 0.0000000e+0 -1.00000000 2.1917670e-15
vn 0.0000000e+0 -1.00000000 0.0000000e+0
vn 0.0000000e+0 0.0000000e+0 1.00000000
vn 1.00000000 0.0000000e+0 0.0000000e+0
vn 1.00000000 0.0000000e+0 0.0000000e+0
vn 0.0000000e+0 -1.00000000 0.0000000e+0
vn 0.0000000e+0 0.0000000e+0 1.00000000
vn 0.0000000e+0 -1.00000000 0.0000000e+0
vn -1.00000000 0.0000000e+0 0.0000000e+0
vn 0.0000000e+0 0.0000000e+0 1.00000000
vn 0.0000000e+0 -1.00000000 0.0000000e+0
vn -1.00000000 0.0000000e+0 0.0000000e+0
vn 0.0000000e+0 0.0000000e+0 -1.00000000
vn 0.0000000e+0 -1.00000000 0.0000000e+0
vn 0.0000000e+0 0.0000000e+0 -1.00000000
vn -1.00000000 0.0000000e+0 0.0000000e+0
vn 0.0000000e+0 -1.00000000 0.0000000e+0
vn 1.00000000 0.0000000e+0 0.0000000e+0
vn 0.0000000e+0 0.0000000e+0 -1.00000000
vn -0.99974418 2.2617815e-2 0.0000000e+0
vn 0.0000000e+0 2.0268629e-2 -0.99979457
vn 0.0000000e+0 2.0268629e-2 -0.99979457
vn -0.99974418 2.2617815e-2 0.0000000e+0
vn 0.99954520 3.0156230e-2 0.0000000e+0
vn 0.0000000e+0 2.7024221e-2 -0.99963478
vn 0.99954520 3.0156230e-2 0.0000000e+0
vn 0.0000000e+0 2.7024221e-2 -0.99963478
vn 0.0000000e+0 2.7024221e-2 -0.99963478
vn 0.99954520 3.0156230e-2 0.0000000e+0
vn 0.99974418 2.2617815e-2 0.0000000e+0
vn 0.0000000e+0 2.0268629e-2 0.99979457
vn 0.0000000e+0 2.0268629e-2 0.99979457
vn 0.99974418 2.2617815e-2 0.0000000e+0
vn -0.99954520 3.0156230e-2 0.0000000e+0
vn 0.0000000e+0 2.7024221e-2 0.99963478
vn 0.0000000e+0 2.7024221e-2 0.99963478
vn -0.99954520 3.0156230e-2 0.0000000e+0
vn 0.0000000e+0 2.7024221e-2 0.99963478
vn -0.99954520 3.0156230e-2 0.0000000e+0
vn 0.0000000e+0 0.0000000e+0 1.00000000
vn 1.00000000 0.0000000e+0 0.0000000e+0
vn 0.0000000e+0 -1.00000000 0.0000000e+0
vn 0.0000000e+0 -1.00000000 0.0000000e+0
vn 0.0000000e+0 -3.8505567e-2 0.99925839
vn 0.99907649 -4.2967140e-2 0.0000000e+0
vn 0.0000000e+0 -1.00000000 0.0000000e+0
vn -1.00000000 0.0000000e+0 0.0000000e+0
vn 0.0000000e+0 0.0000000e+0 1.00000000
vn 0.0000000e+0 -1.00000000 0.0000000e+0
vn 0.0000000e+0 -3.8505567e-2 0.99925839
vn -0.99907649 -4.2967140e-2 0.0000000e+0
vn 0.0000000e+0 -1.00000000 0.0000000e+0
vn 0.0000000e+0 -1.00000000 0.0000000e+0
vn -0.99907649 -4.2967140e-2 0.0000000e+0
vn 0.0000000e+0 -3.8505567e-2 0.99925839
vn -1.00000000 0.0000000e+0 0.0000000e+0
vn 0.0000000e+0 0.0000000e+0 1.00000000
vn -1.00000000 0.0000000e+0 0.0000000e+0
vn 0.0000000e+0 0.0000000e+0 -1.00000000
vn 0.0000000e+0 -1.00000000 0.0000000e+0
vn -0.99907649 -4.2967140e-2 0.0000000e+0
vn 0.0000000e+0 -1.00000000 0.0000000e+0
vn 0.0000000e+0 -3.8505567e-2 -0.99925839
vn 0.0000000e+0 -1.00000000 0.0000000e+0
vn 0.0000000e+0 0.0000000e+0 -1.00000000
vn 1.00000000 0.0000000e+0 0.0000000e+0
vn 0.0000000e+0 -1.00000000 0.0000000e+0
vn 0.99907649 -4.2967140e-2 0.0000000e+0
vn 0.0000000e+0 -3.8505567e-2 -0.99925839
vn 0.0000000e+0 -1.00000000 0.0000000e+0
vn 0.99907649 -4.2967140e-2 0.0000000e+0
vn 0.0000000e+0 -3.8505567e-2 -0.99925839
vn 1.00000000 0.0000000e+0 0.0000000e+0
vn 0.0000000e+0 0.0000000e+0 -1.00000000
vn 0.0000000e+0 -1.00000000 0.0000000e+0
vn -0.99983629 1.8094067e-2 0.0000000e+0
vn 0.0000000e+0 -1.00000000 0.0000000e+0
vn -0.99983629 1.8094067e-2 0.0000000e+0
vn 0.0000000e+0 -3.8505567e-2 0.99925839
vn -0.99983629 1.8094067e-2 0.0000000e+0
vn -0.99983629 1.8094067e-2 0.0000000e+0
vn -0.99983629 1.8094067e-2 0.0000000e+0
vn 0.0000000e+0 -1.00000000 0.0000000e+0
vn 0.0000000e+0 -3.8505567e-2 0.99925839
vn -0.99988632 1.5078115e-2 0.0000000e+0
vn 0.0000000e+0 -1.00000000 0.0000000e+0
vn -0.99988632 1.5078115e-2 0.0000000e+0
vn -0.99988632 1.5078115e-2 0.0000000e+0
vn 0.0000000e+0 -3.8505567e-2 -0.99925839
vn 0.0000000e+0 -1.00000000 0.0000000e+0
vn 0.99983629 1.8094067e-2 0.0000000e+0
vn 0.99983629 1.8094067e-2 0.0000000e+0
vn 0.0000000e+0 -3.8505567e-2 -0.99925839
vn 0.99983629 1.8094067e-2 0.0000000e+0
vn 0.99983629 1.8094067e-2 0.0000000e+0
vn 0.0000000e+0 -1.00000000 0.0000000e+0
vn 0.0000000e+0 -3.8505567e-2 -0.99925839
vn 0.99983629 1.8094067e-2 0.0000000e+0
vn 0.0000000e+0 -1.00000000 0.0000000e+0
vn 0.99988632 1.5078115e-2 0.0000000e+0
vn 0.99988632 1.5078115e-2 0.0000000e+0
vn 0.99988632 1.5078115e-2 0.0000000e+0
vn 0.0000000e+0 -3.8505567e-2 0.99925839
vn 0.0000000e+0 1.3512111e-2 -0.99990871
vn 0.0000000e+0 -1.00000000 0.0000000e+0
vn 0.0000000e+0 1.3512111e-2 -0.99990871
vn 0.0000000e+0 1.3512111e-2 -0.99990871
vn -0.99907649 -4.2967140e-2 0.0000000e+0
vn 0.0000000e+0 1.6214770e-2 -0.99986853
vn 0.0000000e+0 -1.00000000 0.0000000e+0
vn 0.0000000e+0 1.6214770e-2 -0.99986853
vn 0.0000000e+0 1.6214770e-2 -0.99986853
vn 0.99907649 -4.2967140e-2 0.0000000e+0
vn 0.0000000e+0 -1.00000000 0.0000000e+0
vn 0.0000000e+0 1.6214770e-2 -0.99986853
vn 0.99907649 -4.2967140e-2 0.0000000e+0
vn 0.0000000e+0 1.6214770e-2 -0.99986853
vn 0.0000000e+0 -1.00000000 0.0000000e+0
vn 0.0000000e+0 1.3512111e-2 0.99990871
vn 0.0000000e+0 1.3512111e-2 0.99990871
vn 0.0000000e+0 1.3512111e-2 0.99990871
vn 0.99907649 -4.2967140e-2 0.0000000e+0
vn 0.0000000e+0 -1.00000000 0.0000000e+0
vn 0.0000000e+0 1.6214770e-2 0.99986853
vn 0.0000000e+0 1.6214770e-2 0.99986853
vn 0.0000000e+0 1.6214770e-2 0.99986853
vn -0.99907649 -4.2967140e-2 0.0000000e+0
vn 0.0000000e+0 1.6214770e-2 0.99986853
vn 0.0000000e+0 1.6214770e-2 0.99986853
vn -0.99907649 -4.2967140e-2 0.0000000e+0
vn 0.0000000e+0 -1.00000000 0.0000000e+0
vn 0.0000000e+0 -1.00000000 0.0000000e+0
vn 0.0000000e+0 -1.00000000 0.0000000e+0
vn 0.0000000e+0 4.0528930e-2 0.99917837
vn -0.99897687 4.5224059e-2 0.0000000e+0
vn 0.0000000e+0 -1.00000000 0.0000000e+0
vn 0.0000000e+0 -1.00000000 0.0000000e+0
vn 0.99907649 -4.2967140e-2 0.0000000e+0
vn 0.0000000e+0 -3.8505567e-2 -0.99925839
vn 0.0000000e+0 -1.00000000 0.0000000e+0
vn 0.99907649 -4.2967140e-2 0.0000000e+0
vn 0.0000000e+0 4.0528930e-2 0.99917837
vn 0.99907649 -4.2967140e-2 0.0000000e+0
vn 0.0000000e+0 4.0528930e-2 0.99917837
vn 0.0000000e+0 -1.00000000 0.0000000e+0
vn -0.99897687 4.5224059e-2 0.0000000e+0
vn 0.0000000e+0 -3.8505567e-2 -0.99925839
vn -0.99897687 4.5224059e-2 0.0000000e+0
vn 0.0000000e+0 -3.8505567e-2 -0.99925839
vn 0.0000000e+0 -1.00000000 0.0000000e+0
vn 0.0000000e+0 -1.00000000 0.0000000e+0
vn 0.0000000e+0 4.0528930e-2 -0.99917837
vn -0.99897687 4.5224059e-2 0.0000000e+0
vn 0.0000000e+0 4.0528930e-2 -0.99917837
vn -0.99897687 4.5224059e-2 0.0000000e+0
vn 0.0000000e+0 -1.00000000 0.0000000e+0
vn 0.0000000e+0 -1.00000000 0.0000000e+0
vn 0.99907649 -4.2967140e-2 0.0000000e+0
vn 0.0000000e+0 -3.8505567e-2 0.99925839
vn 0.0000000e+0 -3.8505567e-2 0.99925839
vn 0.99907649 -4.2967140e-2 0.0000000e+0
vn 0.0000000e+0 -1.00000000 0.0000000e+0
vn 0.0000000e+0 4.0528930e-2 -0.99917837
vn 0.99907649 -4.2967140e-2 0.0000000e+0
vn 0.0000000e+0 -1.00000000 0.0000000e+0
vn 0.0000000e+0 -3.8505567e-2 0.99925839
vn -0.99897687 4.5224059e-2 0.0000000e+0
vn 0.0000000e+0 -1.00000000 0.0000000e+0
vn 0.0000000e+0 -1.00000000 0.0000000e+0
vn 0.0000000e+0 4.0528930e-2 -0.99917837
vn 0.99897687 4.5224059e-2 0.0000000e+0
vn 0.0000000e+0 -1.00000000 0.0000000e+0
vn 0.0000000e+0 -1.00000000 0.0000000e+0
vn 0.0000000e+0 -3.8505567e-2 0.99925839
vn -0.99907649 -4.2967140e-2 0.0000000e+0
vn 0.0000000e+0 -1.00000000 0.0000000e+0
vn 0.99897687 4.5224059e-2 0.0000000e+0
vn 0.0000000e+0 -3.8505567e-2 0.99925839
vn 0.99897687 4.5224059e-2 0.0000000e+0
vn 0.0000000e+0 -3.8505567e-2 0.99925839
vn 0.0000000e+0 -1.00000000 0.0000000e+0
vn -0.99907649 -4.2967140e-2 0.0000000e+0
vn 0.0000000e+0 4.0528930e-2 -0.99917837
vn -0.99907649 -4.2967140e-2 0.0000000e+0
vn 0.0000000e+0 4.0528930e-2 -0.99917837
vn 0.0000000e+0 -1.00000000 0.0000000e+0
vn 0.0000000e+0 -1.00000000 0.0000000e+0
vn 0.0000000e+0 4.0528930e-2 0.99917837
vn 0.99897687 4.5224059e-2 0.0000000e+0
vn 0.0000000e+0 4.0528930e-2 0.99917837
vn 0.99897687 4.5224059e-2 0.0000000e+0
vn 0.0000000e+0 -1.00000000 0.0000000e+0
vn 0.0000000e+0 -1.00000000 0.0000000e+0
vn -0.99907649 -4.2967140e-2 0.0000000e+0
vn 0.0000000e+0 -3.8505567e-2 -0.99925839
vn -0.99907649 -4.2967140e-2 0.0000000e+0
vn 0.0000000e+0 -3.8505567e-2 -0.99925839
vn 0.0000000e+0 -1.00000000 0.0000000e+0
vn 0.0000000e+0 4.0528930e-2 0.99917837
vn -0.99907649 -4.2967140e-2 0.0000000e+0
vn 0.0000000e+0 -1.00000000 0.0000000e+0
vn 0.0000000e+0 -3.8505567e-2 -0.99925839
vn 0.99897687 4.5224059e-2 0.0000000e+0
g table_1_table_1_uv
usemtl table_1_uv
s 1
f 1/68/30 42/73/2 2/21/41
f 1/68/25 44/72/4 42/73/2
f 2/21/32 42/73/2 41/9/1
f 2/21/38 43/1/3 3/20/44
f 3/20/47 43/1/3 4/67/56
f 4/67/48 43/1/3 44/72/4
f 4/67/55 44/72/4 1/68/31
f 6/40/63 7/39/69 5/64/61
f 8/63/72 5/64/57 7/39/66
f 13/57/97 22/61/169 14/31/108
f 14/113/107 19/102/151 15/112/115
f 15/128/116 38/124/251 24/122/185
f 16/102/130 17/113/138 13/103/98
f 16/129/123 27/116/196 26/123/193
f 17/113/132 16/102/122 18/112/141
f 19/102/145 14/113/101 20/103/154
f 21/36/160 14/31/104 22/61/165
f 23/121/177 27/116/198 16/129/126
f 24/122/182 38/124/249 39/117/255
f 29/56/205 31/54/217 30/53/211
f 30/53/212 32/55/220 29/56/206
f 33/54/223 35/53/231 34/55/227
f 34/55/228 36/56/236 33/54/224
f 41/9/1 43/1/3 2/21/33
f 41/101/1 59/94/19 43/100/3
f 42/71/2 55/12/15 41/5/1
f 43/81/3 48/80/8 44/13/4
f 44/99/4 63/91/23 42/98/2
f 45/75/5 50/76/10 46/14/6
f 46/18/6 48/80/8 45/79/5
f 46/18/6 64/10/24 47/19/7
f 47/19/7 44/13/4 48/80/8
f 47/19/7 48/80/8 46/18/6
f 47/19/7 64/10/24 44/13/4
f 48/96/8 57/86/17 45/89/5
f 49/15/9 46/14/6 50/76/10
f 49/15/9 61/2/21 46/14/6
f 50/76/10 51/77/11 49/15/9
f 50/76/10 57/82/17 51/77/11
f 51/77/11 53/17/13 52/16/12
f 52/16/12 49/15/9 51/77/11
f 52/16/12 62/3/22 49/15/9
f 53/17/13 51/77/11 54/78/14
f 53/17/13 62/3/22 52/16/12
f 54/11/14 55/12/15 53/69/13
f 54/90/14 59/94/19 55/97/15
f 55/12/15 42/71/2 56/70/16
f 55/97/15 59/94/19 41/101/1
f 56/70/16 53/69/13 55/12/15
f 56/95/16 63/91/23 53/88/13
f 57/86/17 48/96/8 58/93/18
f 57/82/17 50/76/10 45/75/5
f 58/93/18 43/100/3 59/94/19
f 58/93/18 48/96/8 43/100/3
f 58/93/18 59/94/19 57/86/17
f 59/94/19 54/90/14 60/87/20
f 60/83/20 51/77/11 57/82/17
f 60/83/20 54/78/14 51/77/11
f 60/87/20 57/86/17 59/94/19
f 61/2/21 49/15/9 62/3/22
f 62/84/22 53/88/13 63/91/23
f 62/84/22 63/91/23 61/85/21
f 63/91/23 44/99/4 64/92/24
f 63/91/23 56/95/16 42/98/2
f 64/10/24 46/18/6 61/4/21
f 64/92/24 61/85/21 63/91/23
s 2
f 5/34/62 14/59/112 6/60/65
f 13/33/95 14/59/103 5/34/58
f 14/128/106 36/117/237 34/125/230
f 15/35/117 24/32/186 16/62/125
f 16/131/127 28/114/204 18/119/144
f 17/118/139 30/126/215 13/130/99
f 19/119/152 38/127/252 15/131/118
f 21/120/163 36/117/239 14/128/109
f 23/58/173 16/62/119 24/32/178
f 26/127/194 28/114/202 16/131/124
f 32/115/221 30/126/214 17/118/134
f 40/114/257 38/127/250 19/119/148
s 3
f 1/26/28 17/37/137 4/50/53
f 4/50/51 18/44/142 12/49/89
f 7/34/70 16/59/129 8/60/74
f 9/27/75 17/37/133 1/26/26
f 12/49/94 28/46/203 25/52/190
f 13/128/100 30/124/216 22/122/171
f 14/130/110 35/115/235 20/118/158
f 15/33/114 16/59/120 7/34/68
f 17/37/135 29/6/208 32/29/222
f 18/44/140 4/50/49 17/37/131
f 18/44/143 28/46/201 12/49/92
f 22/122/168 30/124/213 31/117/219
f 29/6/210 17/37/136 9/27/78
f 34/126/229 35/115/233 14/130/105
f 37/53/242 39/55/253 38/56/248
f 38/56/247 40/54/256 37/53/241
s 4
f 1/108/27 22/65/166 9/106/76
f 2/25/40 22/65/172 1/108/29
f 5/105/59 16/110/121 13/111/96
f 6/104/64 14/110/111 7/105/71
f 7/105/67 14/110/102 15/111/113
f 8/104/73 16/110/128 5/105/60
f 9/106/77 22/65/170 29/109/209
f 10/22/80 21/41/161 2/25/37
f 10/22/82 36/30/238 21/41/162
f 22/65/164 2/25/34 21/41/159
f 25/55/187 28/56/200 26/54/191
f 26/54/192 27/53/195 25/55/188
f 31/74/218 29/109/207 22/65/167
f 33/8/225 36/30/240 10/22/83
s 5
f 3/108/43 24/66/180 11/107/86
f 4/26/54 24/66/183 3/108/46
f 11/107/87 24/66/184 37/109/245
f 12/23/90 23/42/175 4/26/52
f 12/23/91 27/30/197 23/42/176
f 24/66/179 4/26/50 23/42/174
f 25/8/189 27/30/199 12/23/93
f 39/74/254 37/109/243 24/66/181
s 6
f 2/48/36 20/43/156 10/47/79
f 3/26/45 19/38/150 2/48/39
f 10/47/84 35/45/234 33/51/226
f 11/24/85 19/38/147 3/26/42
f 19/38/149 37/7/244 40/28/258
f 20/43/155 2/48/35 19/38/146
f 20/43/157 35/45/232 10/47/81
f 37/7/246 19/38/153 11/24/88
