# Exported from Wings 3D 1.3.0.1
mtllib bookcase.mtl
o bookcase
#60 vertices, 116 faces
v -2.64139337 0.84106540 4.99568953
v -2.64139337 10.84106540 4.99568953
v 1.51835479 10.84106540 4.99568953
v 1.51835479 0.84106540 4.99568953
v -2.64139337 0.84106540 -5.00431047
v -2.64139337 10.84106540 -5.00431047
v 1.51835479 10.84106540 -5.00431047
v 1.51835479 0.84106540 -5.00431047
v 1.51835479 4.08086435 -5.00431047
v 1.51835479 4.08086435 4.99568953
v 1.51835479 7.42853383 -5.00431047
v 1.51835479 7.42853383 4.99568953
v 1.51835479 0.14773206 4.99568953
v -2.64139337 0.14773206 4.99568953
v -2.64139337 0.14773206 -5.00431047
v 1.51835479 0.14773206 -5.00431047
v 1.51835479 0.14773206 4.83847566
v 1.51835479 7.42853383 4.83847566
v 1.51835479 4.08086435 4.83847566
v 1.51835479 0.84106540 4.83847566
v 1.51835479 10.84106540 4.83847566
v 1.51835479 10.84106540 -4.83093234
v 1.51835479 0.84106540 -4.83093234
v 1.51835479 4.08086435 -4.83093234
v 1.51835479 7.42853383 -4.83093234
v 1.51835479 0.14773206 -4.83093234
v 1.51835479 10.68165893 -4.83093234
v 1.51835479 10.68165893 4.83847566
v 1.51835479 7.63448561 -4.83093234
v 1.51835479 7.63448561 4.83847566
v 1.51835479 4.27410978 -4.83093234
v 1.51835479 4.27410978 4.83847566
v 1.51835479 1.02525462 -4.83093234
v 1.51835479 1.02525462 4.83847566
v 1.43027440 0.14773206 -4.83093234
v 1.43027440 0.84106540 -4.83093234
v 1.43027440 0.84106540 4.83847566
v 1.43027440 0.14773206 4.83847566
v 1.37994275 0.14773206 -4.83093234
v 1.37994275 0.84106540 -4.83093234
v 1.37994275 0.84106540 4.83847566
v 1.37994275 0.14773206 4.83847566
v -2.52285712 7.63448561 4.83847566
v -2.52285712 7.63448561 -4.83093234
v -2.52285712 10.68165893 -4.83093234
v -2.52285712 10.68165893 4.83847566
v -2.52285712 4.27410978 4.83847566
v -2.52285712 4.27410978 -4.83093234
v -2.52285712 7.42853383 -4.83093234
v -2.52285712 7.42853383 4.83847566
v -2.52285712 1.02525462 4.83847566
v -2.52285712 1.02525462 -4.83093234
v -2.52285712 4.08086435 -4.83093234
v -2.52285712 4.08086435 4.83847566
v 1.51835479 0.0000000e+0 4.99568953
v -2.64139337 0.0000000e+0 4.99568953
v -2.64139337 0.0000000e+0 -5.00431047
v 1.51835479 0.0000000e+0 -5.00431047
v 1.51835479 0.0000000e+0 -4.83093234
v 1.51835479 0.0000000e+0 4.83847566
vt 1.1274544e-2 6.1591838e-3
vt 1.1274544e-2 1.1633030e-2
vt 1.1274544e-2 3.7322783e-2
vt 1.1274544e-2 0.28140514
vt 1.1274544e-2 0.15736552
vt 1.1274544e-2 0.40784806
vt 0.16540373 6.1591838e-3
vt 0.16540373 3.7322783e-2
vt 0.16540373 1.1633030e-2
vt 0.16540373 0.40784806
vt 0.16665818 0.40975488
vt 0.16665818 0.56388406
vt 0.16666008 6.2643732e-3
vt 0.16666008 1.1738220e-2
vt 0.16666008 0.40795325
vt 0.16666008 3.7427972e-2
vt 0.16873172 7.6121155e-3
vt 0.16873172 1.3085962e-2
vt 0.16873172 3.8775715e-2
vt 0.16873172 0.15881846
vt 0.16873172 0.28285807
vt 0.16873172 0.40930099
vt 0.17241008 0.57616390
vt 0.17241008 0.57802881
vt 0.17241008 0.58129242
vt 0.17248335 0.40975488
vt 0.17276011 0.57569767
vt 0.17276011 0.57896127
vt 0.17276011 0.58082619
vt 0.17372774 1.4086439e-2
vt 0.17372774 3.9776191e-2
vt 0.17413544 0.16538891
vt 0.17413544 0.28226830
vt 0.17455689 7.6121155e-3
vt 0.17455689 1.3085962e-2
vt 0.17455689 3.8775715e-2
vt 0.17455689 4.5600391e-2
vt 0.17455689 0.15881846
vt 0.17455689 0.16597869
vt 0.17455689 0.28285807
vt 0.17455689 0.29048911
vt 0.17455689 0.40339458
vt 0.17455689 0.40930099
vt 0.17476970 0.29111333
vt 0.17476970 0.40401881
vt 0.17508084 4.4295730e-2
vt 0.17508084 0.15751379
vt 0.33870321 0.57616390
vt 0.33870321 0.57802881
vt 0.33870321 0.58129242
vt 0.33905323 0.57569767
vt 0.33905323 0.57896127
vt 0.33905323 0.58082619
vt 0.36439297 0.57616390
vt 0.36439297 0.57802881
vt 0.36439297 0.58129242
vt 0.36474299 0.57569767
vt 0.36474299 0.57896127
vt 0.36474299 0.58082619
vt 0.53068609 0.57616390
vt 0.53068609 0.57802881
vt 0.53068609 0.58129242
vt 0.53075936 0.40975488
vt 0.53103612 0.57569767
vt 0.53103612 0.57896127
vt 0.53103612 0.58082619
vt 0.53200375 1.4086439e-2
vt 0.53200375 3.9776191e-2
vt 0.53241145 0.16538891
vt 0.53241145 0.28226830
vt 0.53283290 7.6121155e-3
vt 0.53283290 1.3085962e-2
vt 0.53283290 3.8775715e-2
vt 0.53283290 4.5600391e-2
vt 0.53283290 0.15881846
vt 0.53283290 0.16597869
vt 0.53283290 0.28285807
vt 0.53283290 0.29048911
vt 0.53283290 0.40339458
vt 0.53283290 0.40930099
vt 0.53304571 0.29111333
vt 0.53304571 0.40401881
vt 0.53335684 4.4295730e-2
vt 0.53335684 0.15751379
vt 0.53718346 0.40975488
vt 0.53718346 0.56388406
vt 0.53718536 6.2643732e-3
vt 0.53718536 1.1738220e-2
vt 0.53718536 3.7427972e-2
vt 0.53718536 0.40795325
vt 0.53925700 7.6121155e-3
vt 0.53925700 1.3085962e-2
vt 0.53925700 3.8775715e-2
vt 0.53925700 0.15881846
vt 0.53925700 0.28285807
vt 0.53925700 0.40930099
vt 0.54084577 6.9547144e-3
vt 0.54084577 1.2428561e-2
vt 0.54084577 3.8118314e-2
vt 0.54084577 0.40864359
vt 0.55025473 0.41122930
vt 0.55025473 0.52413478
vt 0.55065914 0.52565355
vt 0.55065914 0.88392956
vt 0.55089332 0.88709453
vt 0.55089332 1.00000000
vt 0.69497495 6.9547144e-3
vt 0.69497495 1.2428561e-2
vt 0.69497495 3.8118314e-2
vt 0.69497495 0.15816105
vt 0.69497495 0.28220067
vt 0.69497495 0.40864359
vt 0.69999185 0.41122930
vt 0.69999185 0.52413478
vt 0.70031382 0.52504346
vt 0.70031382 0.88331947
vt 0.70039625 0.52565355
vt 0.70039625 0.88392956
vt 0.70063043 1.00000000
vt 0.70063043 0.88709453
vt 0.70090388 0.40797107
vt 0.70090388 0.52485046
vt 0.70153050 0.88312061
vt 0.70153050 1.00000000
vt 0.82110879 1.4688474e-2
vt 0.82110879 2.0513645e-2
vt 0.82110879 0.38521375
vt 0.82110879 0.37878965
vt 0.82330483 2.0813109e-2
vt 0.82330483 0.37908912
vt 0.82330483 2.0813109e-2
vt 0.82330483 2.0813109e-2
vt 0.82330483 0.37908912
vt 0.82330483 0.37908912
vt 0.85005094 0.52504346
vt 0.85005094 0.88331947
vt 0.85026288 0.52617322
vt 0.85026288 0.88444923
vt 0.85026288 0.88678194
vt 0.85026288 1.00000000
vt 0.85026288 0.41210288
vt 0.85026288 0.52532094
vt 0.85064099 0.40797107
vt 0.85064099 0.52485046
vt 0.85126762 0.88312061
vt 0.85126762 1.00000000
vt 0.97304194 2.0813109e-2
vt 0.97304194 0.37908912
vt 0.97304194 2.0813109e-2
vt 0.97304194 0.37908912
vt 0.97523798 1.4688474e-2
vt 0.97523798 0.38521375
vt 1.00000000 0.52617322
vt 1.00000000 0.41210288
vt 1.00000000 0.52532094
vt 1.00000000 0.88444923
vt 1.00000000 0.88678194
vt 1.00000000 1.00000000
vn 0.0000000e+0 0.70710678 0.70710678
vn 0.0000000e+0 -0.70710678 0.70710678
vn 0.0000000e+0 -0.70710678 -0.70710678
vn 0.0000000e+0 0.70710678 -0.70710678
vn 1.0204943e-16 0.0000000e+0 1.00000000
vn -1.00000000 0.0000000e+0 0.0000000e+0
vn 1.0204943e-16 0.0000000e+0 1.00000000
vn -1.00000000 0.0000000e+0 0.0000000e+0
vn 1.0204943e-16 0.0000000e+0 1.00000000
vn 1.0204943e-16 0.0000000e+0 1.00000000
vn -1.00000000 0.0000000e+0 0.0000000e+0
vn -1.00000000 0.0000000e+0 0.0000000e+0
vn 1.0204943e-16 0.0000000e+0 1.00000000
vn 0.0000000e+0 1.00000000 0.0000000e+0
vn 0.0000000e+0 0.0000000e+0 1.00000000
vn 0.0000000e+0 0.0000000e+0 1.00000000
vn 0.0000000e+0 1.00000000 0.0000000e+0
vn 0.0000000e+0 1.00000000 0.0000000e+0
vn -1.00000000 0.0000000e+0 0.0000000e+0
vn 0.0000000e+0 1.00000000 0.0000000e+0
vn 0.0000000e+0 0.0000000e+0 1.00000000
vn 1.00000000 0.0000000e+0 0.0000000e+0
vn 1.00000000 0.0000000e+0 0.0000000e+0
vn 1.00000000 0.0000000e+0 0.0000000e+0
vn 0.0000000e+0 0.0000000e+0 1.00000000
vn 1.00000000 0.0000000e+0 0.0000000e+0
vn 1.00000000 0.0000000e+0 0.0000000e+0
vn 1.00000000 0.0000000e+0 0.0000000e+0
vn 0.0000000e+0 0.0000000e+0 1.00000000
vn -1.00000000 0.0000000e+0 0.0000000e+0
vn 1.2756179e-16 0.0000000e+0 -1.00000000
vn 1.2756179e-16 0.0000000e+0 -1.00000000
vn 1.2756179e-16 0.0000000e+0 -1.00000000
vn -1.00000000 0.0000000e+0 0.0000000e+0
vn 1.2756179e-16 0.0000000e+0 -1.00000000
vn 0.0000000e+0 0.0000000e+0 -1.00000000
vn -1.00000000 0.0000000e+0 0.0000000e+0
vn 0.0000000e+0 1.00000000 0.0000000e+0
vn 0.0000000e+0 1.00000000 0.0000000e+0
vn 0.0000000e+0 0.0000000e+0 -1.00000000
vn -1.00000000 0.0000000e+0 0.0000000e+0
vn 0.0000000e+0 0.0000000e+0 -1.00000000
vn 1.00000000 0.0000000e+0 0.0000000e+0
vn 0.0000000e+0 1.00000000 0.0000000e+0
vn 1.00000000 0.0000000e+0 0.0000000e+0
vn 1.00000000 0.0000000e+0 0.0000000e+0
vn 0.0000000e+0 0.0000000e+0 -1.00000000
vn 1.00000000 0.0000000e+0 0.0000000e+0
vn 0.0000000e+0 0.0000000e+0 -1.00000000
vn 0.0000000e+0 0.0000000e+0 -1.00000000
vn 1.00000000 0.0000000e+0 0.0000000e+0
vn 1.00000000 0.0000000e+0 0.0000000e+0
vn 1.00000000 0.0000000e+0 0.0000000e+0
vn 1.00000000 0.0000000e+0 0.0000000e+0
vn 2.5512358e-16 0.0000000e+0 -1.00000000
vn 2.5512358e-16 0.0000000e+0 -1.00000000
vn 1.00000000 0.0000000e+0 0.0000000e+0
vn 1.00000000 0.0000000e+0 0.0000000e+0
vn 1.00000000 0.0000000e+0 0.0000000e+0
vn 2.5512358e-16 0.0000000e+0 1.00000000
vn 1.00000000 0.0000000e+0 0.0000000e+0
vn 2.5512358e-16 0.0000000e+0 1.00000000
vn 1.00000000 0.0000000e+0 0.0000000e+0
vn 1.00000000 0.0000000e+0 0.0000000e+0
vn 1.00000000 0.0000000e+0 0.0000000e+0
vn 1.7008239e-16 0.0000000e+0 -1.00000000
vn 1.00000000 0.0000000e+0 0.0000000e+0
vn 1.7008239e-16 0.0000000e+0 -1.00000000
vn 1.7008239e-16 0.0000000e+0 -1.00000000
vn 1.00000000 0.0000000e+0 0.0000000e+0
vn 1.00000000 0.0000000e+0 0.0000000e+0
vn 1.00000000 0.0000000e+0 0.0000000e+0
vn 1.00000000 0.0000000e+0 0.0000000e+0
vn 1.7008239e-16 0.0000000e+0 1.00000000
vn 1.7008239e-16 0.0000000e+0 1.00000000
vn 1.7008239e-16 0.0000000e+0 1.00000000
vn 1.00000000 0.0000000e+0 0.0000000e+0
vn 1.00000000 0.0000000e+0 0.0000000e+0
vn 1.00000000 0.0000000e+0 0.0000000e+0
vn 0.0000000e+0 0.0000000e+0 1.00000000
vn 1.00000000 0.0000000e+0 0.0000000e+0
vn 0.0000000e+0 0.0000000e+0 1.00000000
vn 1.00000000 0.0000000e+0 0.0000000e+0
vn 1.00000000 0.0000000e+0 0.0000000e+0
vn 1.00000000 0.0000000e+0 0.0000000e+0
vn 0.0000000e+0 0.0000000e+0 1.00000000
vn 0.0000000e+0 0.0000000e+0 1.00000000
vn 0.0000000e+0 0.0000000e+0 1.00000000
vn -1.00000000 0.0000000e+0 0.0000000e+0
vn 0.0000000e+0 0.0000000e+0 1.00000000
vn -1.00000000 0.0000000e+0 0.0000000e+0
vn -1.00000000 0.0000000e+0 0.0000000e+0
vn 0.0000000e+0 0.0000000e+0 -1.00000000
vn -1.00000000 0.0000000e+0 0.0000000e+0
vn 0.0000000e+0 0.0000000e+0 -1.00000000
vn -1.00000000 0.0000000e+0 0.0000000e+0
vn 0.0000000e+0 0.0000000e+0 -1.00000000
vn 0.0000000e+0 0.0000000e+0 -1.00000000
vn -1.00000000 0.0000000e+0 0.0000000e+0
vn 0.0000000e+0 0.0000000e+0 -1.00000000
vn 1.00000000 0.0000000e+0 0.0000000e+0
vn 1.00000000 0.0000000e+0 0.0000000e+0
vn 0.0000000e+0 0.0000000e+0 -1.00000000
vn 1.00000000 0.0000000e+0 0.0000000e+0
vn 0.0000000e+0 0.70710678 -0.70710678
vn 1.00000000 0.0000000e+0 0.0000000e+0
vn 1.00000000 0.0000000e+0 0.0000000e+0
vn 0.0000000e+0 0.70710678 -0.70710678
vn 1.00000000 0.0000000e+0 0.0000000e+0
vn 1.00000000 0.0000000e+0 0.0000000e+0
vn 0.0000000e+0 -1.00000000 0.0000000e+0
vn 0.0000000e+0 0.0000000e+0 -1.00000000
vn 0.0000000e+0 0.0000000e+0 -1.00000000
vn 1.00000000 0.0000000e+0 0.0000000e+0
vn 0.0000000e+0 -1.00000000 0.0000000e+0
vn 1.00000000 0.0000000e+0 0.0000000e+0
vn 1.00000000 0.0000000e+0 0.0000000e+0
vn 1.00000000 0.0000000e+0 0.0000000e+0
vn 0.0000000e+0 -1.00000000 0.0000000e+0
vn 0.0000000e+0 0.0000000e+0 -1.00000000
vn 1.00000000 0.0000000e+0 0.0000000e+0
vn 0.0000000e+0 0.0000000e+0 -1.00000000
vn 1.00000000 0.0000000e+0 0.0000000e+0
vn 0.0000000e+0 -1.00000000 0.0000000e+0
vn 1.00000000 0.0000000e+0 0.0000000e+0
vn 1.00000000 0.0000000e+0 0.0000000e+0
vn 1.00000000 0.0000000e+0 0.0000000e+0
vn 0.0000000e+0 -0.70710678 -0.70710678
vn 0.0000000e+0 -0.70710678 -0.70710678
vn 0.0000000e+0 -0.70710678 -0.70710678
vn 1.00000000 0.0000000e+0 0.0000000e+0
vn 0.0000000e+0 -0.70710678 -0.70710678
vn 1.00000000 0.0000000e+0 0.0000000e+0
vn 0.0000000e+0 1.00000000 0.0000000e+0
vn 0.0000000e+0 1.00000000 0.0000000e+0
vn 1.00000000 0.0000000e+0 0.0000000e+0
vn 1.00000000 0.0000000e+0 0.0000000e+0
vn 1.00000000 0.0000000e+0 0.0000000e+0
vn 1.00000000 0.0000000e+0 0.0000000e+0
vn 0.0000000e+0 1.00000000 0.0000000e+0
vn 0.0000000e+0 1.00000000 0.0000000e+0
vn 0.0000000e+0 1.00000000 0.0000000e+0
vn 1.00000000 0.0000000e+0 0.0000000e+0
vn 1.00000000 0.0000000e+0 0.0000000e+0
vn 0.0000000e+0 -0.70710678 0.70710678
vn 0.0000000e+0 -0.70710678 0.70710678
vn 1.00000000 0.0000000e+0 0.0000000e+0
vn 1.00000000 0.0000000e+0 0.0000000e+0
vn 1.00000000 0.0000000e+0 0.0000000e+0
vn 1.00000000 0.0000000e+0 0.0000000e+0
vn 1.00000000 0.0000000e+0 0.0000000e+0
vn 0.0000000e+0 -1.00000000 0.0000000e+0
vn 0.0000000e+0 0.0000000e+0 1.00000000
vn 1.00000000 0.0000000e+0 0.0000000e+0
vn 1.00000000 0.0000000e+0 0.0000000e+0
vn 1.00000000 0.0000000e+0 0.0000000e+0
vn 0.0000000e+0 -1.00000000 0.0000000e+0
vn 0.0000000e+0 0.0000000e+0 1.00000000
vn 1.00000000 0.0000000e+0 0.0000000e+0
vn 0.0000000e+0 0.70710678 0.70710678
vn 0.0000000e+0 0.70710678 0.70710678
vn 1.00000000 0.0000000e+0 0.0000000e+0
vn 1.00000000 0.0000000e+0 0.0000000e+0
vn 1.00000000 0.0000000e+0 0.0000000e+0
vn 0.0000000e+0 0.70710678 0.70710678
vn 1.00000000 0.0000000e+0 0.0000000e+0
vn 1.00000000 0.0000000e+0 0.0000000e+0
vn 0.0000000e+0 0.70710678 0.70710678
vn 1.00000000 0.0000000e+0 0.0000000e+0
vn 1.00000000 0.0000000e+0 0.0000000e+0
vn 0.0000000e+0 -1.00000000 0.0000000e+0
vn 0.0000000e+0 0.0000000e+0 1.00000000
vn 1.00000000 0.0000000e+0 0.0000000e+0
vn 1.00000000 0.0000000e+0 0.0000000e+0
vn 0.0000000e+0 -1.00000000 0.0000000e+0
vn 0.0000000e+0 0.0000000e+0 -1.00000000
vn 0.0000000e+0 0.0000000e+0 -1.00000000
vn 0.0000000e+0 -1.00000000 0.0000000e+0
vn 1.00000000 0.0000000e+0 0.0000000e+0
vn 1.00000000 0.0000000e+0 0.0000000e+0
vn 1.00000000 0.0000000e+0 0.0000000e+0
vn 1.00000000 0.0000000e+0 0.0000000e+0
vn 0.0000000e+0 1.00000000 0.0000000e+0
vn 0.0000000e+0 0.0000000e+0 1.00000000
vn 1.00000000 0.0000000e+0 0.0000000e+0
vn 0.0000000e+0 1.00000000 0.0000000e+0
vn 0.0000000e+0 0.0000000e+0 1.00000000
vn 1.00000000 0.0000000e+0 0.0000000e+0
vn 1.00000000 0.0000000e+0 0.0000000e+0
vn 1.00000000 0.0000000e+0 0.0000000e+0
vn 1.00000000 0.0000000e+0 0.0000000e+0
vn 1.00000000 0.0000000e+0 0.0000000e+0
vn 0.0000000e+0 1.00000000 0.0000000e+0
vn 0.0000000e+0 0.0000000e+0 -1.00000000
vn 1.00000000 0.0000000e+0 0.0000000e+0
vn 1.00000000 0.0000000e+0 0.0000000e+0
vn 1.00000000 0.0000000e+0 0.0000000e+0
vn 1.00000000 0.0000000e+0 0.0000000e+0
vn 0.0000000e+0 1.00000000 0.0000000e+0
vn 0.0000000e+0 0.0000000e+0 1.00000000
vn 1.00000000 0.0000000e+0 0.0000000e+0
vn 0.0000000e+0 1.00000000 0.0000000e+0
vn 0.0000000e+0 0.0000000e+0 1.00000000
vn 1.00000000 0.0000000e+0 0.0000000e+0
vn 1.00000000 0.0000000e+0 0.0000000e+0
vn 1.00000000 0.0000000e+0 0.0000000e+0
vn 1.00000000 0.0000000e+0 0.0000000e+0
vn 0.0000000e+0 1.00000000 0.0000000e+0
vn 0.0000000e+0 0.0000000e+0 -1.00000000
vn 1.00000000 0.0000000e+0 0.0000000e+0
vn 1.00000000 0.0000000e+0 0.0000000e+0
vn 1.00000000 0.0000000e+0 0.0000000e+0
vn 1.00000000 0.0000000e+0 0.0000000e+0
vn 0.0000000e+0 1.00000000 0.0000000e+0
vn 0.0000000e+0 0.0000000e+0 1.00000000
vn 1.00000000 0.0000000e+0 0.0000000e+0
vn 0.0000000e+0 1.00000000 0.0000000e+0
vn 0.0000000e+0 0.0000000e+0 1.00000000
vn 1.00000000 0.0000000e+0 0.0000000e+0
vn 1.00000000 0.0000000e+0 0.0000000e+0
vn 1.00000000 0.0000000e+0 0.0000000e+0
vn 1.00000000 0.0000000e+0 0.0000000e+0
vn 1.00000000 0.0000000e+0 0.0000000e+0
vn 1.00000000 0.0000000e+0 0.0000000e+0
vn 0.0000000e+0 1.00000000 0.0000000e+0
vn 0.0000000e+0 0.0000000e+0 -1.00000000
vn 1.00000000 0.0000000e+0 0.0000000e+0
vn 0.0000000e+0 0.70710678 0.70710678
vn 0.0000000e+0 0.70710678 0.70710678
vn 0.0000000e+0 0.70710678 0.70710678
vn 1.00000000 0.0000000e+0 0.0000000e+0
vn 0.0000000e+0 0.70710678 0.70710678
vn 0.0000000e+0 -0.70710678 0.70710678
vn 0.0000000e+0 -0.70710678 0.70710678
vn 1.00000000 0.0000000e+0 0.0000000e+0
vn 1.00000000 0.0000000e+0 0.0000000e+0
vn 0.0000000e+0 -0.70710678 -0.70710678
vn 0.0000000e+0 -0.70710678 -0.70710678
vn 1.00000000 0.0000000e+0 0.0000000e+0
vn 0.0000000e+0 -0.70710678 -0.70710678
vn 0.0000000e+0 -0.70710678 -0.70710678
vn 1.00000000 0.0000000e+0 0.0000000e+0
vn 0.0000000e+0 0.70710678 -0.70710678
vn 0.0000000e+0 0.70710678 -0.70710678
vn 1.00000000 0.0000000e+0 0.0000000e+0
vn 0.0000000e+0 1.00000000 0.0000000e+0
vn 0.0000000e+0 0.0000000e+0 -1.00000000
vn 0.0000000e+0 1.00000000 0.0000000e+0
vn 0.0000000e+0 0.0000000e+0 -1.00000000
vn 1.00000000 0.0000000e+0 0.0000000e+0
vn 0.0000000e+0 1.00000000 0.0000000e+0
vn 0.0000000e+0 0.0000000e+0 1.00000000
vn 1.00000000 0.0000000e+0 0.0000000e+0
vn 1.00000000 0.0000000e+0 0.0000000e+0
vn 0.0000000e+0 0.0000000e+0 1.00000000
vn 0.0000000e+0 -1.00000000 0.0000000e+0
vn 0.0000000e+0 -1.00000000 0.0000000e+0
vn 1.00000000 0.0000000e+0 0.0000000e+0
vn 0.0000000e+0 0.0000000e+0 1.00000000
vn 1.00000000 0.0000000e+0 0.0000000e+0
vn 0.0000000e+0 -1.00000000 0.0000000e+0
vn 0.0000000e+0 0.0000000e+0 -1.00000000
vn 1.00000000 0.0000000e+0 0.0000000e+0
vn 0.0000000e+0 1.00000000 0.0000000e+0
vn 0.0000000e+0 0.0000000e+0 -1.00000000
vn 0.0000000e+0 1.00000000 0.0000000e+0
vn 0.0000000e+0 0.0000000e+0 -1.00000000
vn 1.00000000 0.0000000e+0 0.0000000e+0
vn 0.0000000e+0 1.00000000 0.0000000e+0
vn 0.0000000e+0 0.0000000e+0 1.00000000
vn 1.00000000 0.0000000e+0 0.0000000e+0
vn 1.00000000 0.0000000e+0 0.0000000e+0
vn 0.0000000e+0 0.0000000e+0 1.00000000
vn 0.0000000e+0 -1.00000000 0.0000000e+0
vn 0.0000000e+0 -1.00000000 0.0000000e+0
vn 1.00000000 0.0000000e+0 0.0000000e+0
vn 0.0000000e+0 0.0000000e+0 1.00000000
vn 1.00000000 0.0000000e+0 0.0000000e+0
vn 0.0000000e+0 -1.00000000 0.0000000e+0
vn 0.0000000e+0 0.0000000e+0 -1.00000000
vn 1.00000000 0.0000000e+0 0.0000000e+0
vn 0.0000000e+0 1.00000000 0.0000000e+0
vn 0.0000000e+0 0.0000000e+0 -1.00000000
vn 0.0000000e+0 1.00000000 0.0000000e+0
vn 0.0000000e+0 0.0000000e+0 -1.00000000
vn 1.00000000 0.0000000e+0 0.0000000e+0
vn 0.0000000e+0 1.00000000 0.0000000e+0
vn 0.0000000e+0 0.0000000e+0 1.00000000
vn 1.00000000 0.0000000e+0 0.0000000e+0
vn 1.00000000 0.0000000e+0 0.0000000e+0
vn 0.0000000e+0 0.0000000e+0 1.00000000
vn 0.0000000e+0 -1.00000000 0.0000000e+0
vn 0.0000000e+0 -1.00000000 0.0000000e+0
vn 1.00000000 0.0000000e+0 0.0000000e+0
vn 0.0000000e+0 0.0000000e+0 1.00000000
vn 1.00000000 0.0000000e+0 0.0000000e+0
vn 0.0000000e+0 -1.00000000 0.0000000e+0
vn 0.0000000e+0 0.0000000e+0 -1.00000000
vn 0.0000000e+0 0.0000000e+0 1.00000000
vn 1.00000000 0.0000000e+0 0.0000000e+0
vn 0.0000000e+0 -1.00000000 0.0000000e+0
vn 0.0000000e+0 0.0000000e+0 1.00000000
vn -1.00000000 0.0000000e+0 0.0000000e+0
vn 0.0000000e+0 -1.00000000 0.0000000e+0
vn 0.0000000e+0 -1.00000000 0.0000000e+0
vn 0.0000000e+0 -1.00000000 0.0000000e+0
vn 0.0000000e+0 0.0000000e+0 1.00000000
vn -1.00000000 0.0000000e+0 0.0000000e+0
vn 0.0000000e+0 -1.00000000 0.0000000e+0
vn -1.00000000 0.0000000e+0 0.0000000e+0
vn 0.0000000e+0 0.0000000e+0 -1.00000000
vn 0.0000000e+0 -1.00000000 0.0000000e+0
vn 0.0000000e+0 -1.00000000 0.0000000e+0
vn 0.0000000e+0 0.0000000e+0 -1.00000000
vn 1.00000000 0.0000000e+0 0.0000000e+0
vn 1.00000000 0.0000000e+0 0.0000000e+0
vn 0.0000000e+0 0.0000000e+0 -1.00000000
vn 0.0000000e+0 -1.00000000 0.0000000e+0
vn 1.00000000 0.0000000e+0 0.0000000e+0
vn 1.00000000 0.0000000e+0 0.0000000e+0
vn 0.0000000e+0 -1.00000000 0.0000000e+0
vn 0.0000000e+0 -1.00000000 0.0000000e+0
vn 1.00000000 0.0000000e+0 0.0000000e+0
vn 1.00000000 0.0000000e+0 0.0000000e+0
vn 0.0000000e+0 -1.00000000 0.0000000e+0
vn 0.0000000e+0 -1.00000000 0.0000000e+0
vn 1.00000000 0.0000000e+0 0.0000000e+0
vn 1.00000000 0.0000000e+0 0.0000000e+0
g bookcase_bookcase_uv
usemtl bookcase_uv
s 1
f 2/12/18 22/63/142 6/86/39
f 3/11/20 21/26/134 2/12/14
f 6/86/38 22/63/141 7/85/44
f 18/129/115 49/150/275 25/130/157
f 19/150/124 53/131/293 24/149/152
f 22/63/140 2/12/17 21/26/135
f 31/136/202 47/115/266 32/135/208
f 33/156/217 51/137/284 34/153/225
f 40/68/235 41/31/239 39/67/231
f 42/30/242 39/67/227 41/31/236
f 44/81/253 45/82/258 43/44/250
f 46/45/260 43/44/245 45/82/254
f 47/115/264 31/136/199 48/116/269
f 49/150/274 18/129/111 50/149/279
f 51/137/282 33/156/214 52/138/287
f 53/131/292 19/150/119 54/134/297
f 56/151/306 60/126/326 55/125/301
f 57/152/312 59/128/321 56/151/304
f 58/127/313 59/128/318 57/152/309
f 60/126/325 56/151/305 59/128/322
s 2
f 1/99/10 12/111/75 2/100/15
f 1/99/13 13/108/87 4/109/29
f 2/100/16 12/111/76 3/112/21
f 4/109/25 10/110/60 1/99/5
f 5/8/31 9/5/55 8/3/49
f 6/10/40 11/4/68 5/8/32
f 7/6/42 11/4/66 6/10/36
f 8/3/50 15/9/97 5/8/35
f 9/5/56 5/8/33 11/4/69
f 12/111/74 1/99/9 10/110/62
f 13/108/80 1/99/7 14/98/88
f 14/98/90 56/97/307 13/108/86
f 15/9/93 8/3/47 16/2/100
f 16/2/103 58/1/317 15/9/98
f 17/57/105 38/58/4 20/51/132
f 20/64/130 36/28/2 23/27/146
f 23/50/145 36/49/2 26/56/165
f 25/146/158 49/124/277 31/145/203
f 26/25/168 38/61/4 17/62/108
f 28/132/178 45/148/257 27/133/171
f 29/118/186 43/103/248 30/117/193
f 32/121/209 47/143/267 18/122/113
f 35/55/1 26/56/160 36/49/2
f 35/24/1 38/61/4 26/25/161
f 35/24/1 39/23/230 38/61/4
f 36/28/2 20/64/128 37/65/3
f 36/49/2 39/54/232 35/55/1
f 37/52/3 20/51/129 38/58/4
f 37/65/3 41/66/241 36/28/2
f 38/58/4 41/53/240 37/52/3
f 39/54/228 36/49/2 40/48/233
f 40/29/234 36/28/2 41/66/237
f 41/53/238 38/58/4 42/59/243
f 42/60/244 38/61/4 39/23/229
f 43/103/246 29/118/183 44/104/251
f 45/148/256 28/132/175 46/147/261
f 48/123/270 31/145/200 49/124/273
f 50/144/280 18/122/112 47/143/265
f 52/83/289 53/84/294 51/46/286
f 54/47/296 51/46/281 53/84/290
f 55/107/299 13/108/82 56/97/302
f 57/7/311 15/9/95 58/1/314
s 3
f 1/89/6 6/15/37 5/16/30
f 2/90/19 6/15/41 1/89/11
f 5/16/34 15/14/96 1/89/12
f 14/88/89 1/89/8 15/14/92
f 15/14/99 56/87/308 14/88/91
f 24/158/153 53/140/295 33/157/218
f 27/119/172 45/106/259 29/120/187
f 30/101/194 43/113/249 28/102/177
f 34/141/226 51/154/285 19/142/122
f 44/105/252 29/120/184 45/106/255
f 46/114/262 28/102/176 43/113/247
f 48/69/271 49/70/276 47/32/268
f 50/33/278 47/32/263 49/70/272
f 52/139/288 33/157/215 53/140/291
f 54/155/298 19/142/120 51/154/283
f 56/87/303 15/14/94 57/13/310
s 4
f 3/22/24 28/42/181 21/43/137
f 4/19/28 13/18/84 20/36/133
f 4/19/27 34/37/224 10/20/64
f 7/96/46 29/78/189 11/95/70
f 8/93/51 26/72/164 16/92/101
f 8/93/53 33/74/220 23/73/148
f 9/94/58 31/76/205 24/75/151
f 9/94/59 33/74/219 8/93/52
f 10/20/65 32/39/211 12/21/79
f 10/20/63 34/37/223 19/38/121
f 11/95/71 29/78/190 25/77/156
f 11/95/72 31/76/204 9/94/57
f 12/21/77 30/41/196 3/22/23
f 12/21/78 32/39/210 18/40/116
f 13/18/85 60/34/327 17/35/106
f 17/35/104 20/36/126 13/18/81
f 17/35/107 60/34/328 26/72/167
f 18/40/110 29/78/182 30/41/192
f 18/40/109 30/41/191 12/21/73
f 19/38/118 31/76/198 32/39/207
f 19/38/117 32/39/206 10/20/61
f 20/36/127 33/74/213 34/37/222
f 20/36/125 34/37/221 4/19/26
f 21/43/136 28/42/179 22/80/143
f 22/80/139 27/79/170 7/96/43
f 22/80/138 28/42/174 27/79/169
f 23/73/144 26/72/159 8/93/48
f 23/73/147 33/74/216 20/36/131
f 24/75/150 31/76/201 19/38/123
f 24/75/149 33/74/212 9/94/54
f 25/77/155 29/78/185 18/40/114
f 25/77/154 31/76/197 11/95/67
f 26/72/166 58/91/316 16/92/102
f 28/42/180 3/22/22 30/41/195
f 29/78/188 7/96/45 27/79/173
f 55/17/300 60/34/324 13/18/83
f 58/91/315 26/72/162 59/71/319
f 59/71/320 26/72/163 60/34/323
